<svg xmlns="http://www.w3.org/2000/svg" xmlns:xlink="http://www.w3.org/1999/xlink" viewBox="0 0 266.53 245"><defs><style>.cls-1{fill:#bbbdbf;}.cls-2{fill:#58595b;}.cls-3{fill:#302d2e;}.cls-4{fill:url(#linear-gradient);}.cls-5{fill:url(#linear-gradient-2);}.cls-6{fill:#fff140;}.cls-7{fill:#282323;}.cls-8{fill:url(#linear-gradient-3);}.cls-9{fill:#302c2c;}.cls-10{fill:#353131;}.cls-11{fill:#ddb300;}.cls-12{fill:#c6a000;}.cls-13{fill:url(#linear-gradient-4);}.cls-14{fill:url(#linear-gradient-5);}.cls-15{fill:url(#linear-gradient-6);}.cls-16{fill:url(#linear-gradient-7);}.cls-17{fill:url(#linear-gradient-8);}.cls-18{fill:url(#linear-gradient-9);}.cls-19{fill:url(#linear-gradient-10);}.cls-20{fill:#6d6e70;}.cls-21{fill:url(#linear-gradient-11);}.cls-22{fill:#828282;}.cls-23{fill:url(#linear-gradient-12);}.cls-24{fill:url(#linear-gradient-13);}.cls-25{fill:#404041;}.cls-26{fill:#231f20;}.cls-27{fill:#ffe471;}.cls-28{fill:url(#linear-gradient-14);}.cls-29{fill:url(#linear-gradient-15);}.cls-30{fill:url(#linear-gradient-16);}.cls-31{fill:url(#linear-gradient-17);}.cls-32{fill:url(#linear-gradient-18);}.cls-33{fill:#ff541f;}.cls-34{fill:url(#linear-gradient-19);}.cls-35{fill:url(#linear-gradient-20);}.cls-36{fill:url(#linear-gradient-21);}</style><linearGradient id="linear-gradient" x1="89.64" y1="139.27" x2="148.88" y2="139.27" gradientUnits="userSpaceOnUse"><stop offset="0" stop-color="#3e3c3e"/><stop offset="1" stop-color="#474648"/></linearGradient><linearGradient id="linear-gradient-2" x1="89.64" y1="144.74" x2="148.88" y2="144.74" gradientUnits="userSpaceOnUse"><stop offset="0" stop-color="#3e3c3e"/><stop offset="0.72" stop-color="#3e3c3e"/><stop offset="0.86" stop-color="#3e3c3e"/></linearGradient><linearGradient id="linear-gradient-3" x1="173.99" y1="174.4" x2="192.87" y2="133.42" gradientUnits="userSpaceOnUse"><stop offset="0" stop-color="#3d393b"/><stop offset="0.14" stop-color="#39302f"/><stop offset="0.73" stop-color="#515c60"/><stop offset="0.88" stop-color="#4f595d"/><stop offset="0.99" stop-color="#4b5053"/><stop offset="1" stop-color="#4a4f52"/></linearGradient><linearGradient id="linear-gradient-4" x1="108.1" y1="212.45" x2="126.98" y2="171.48" xlink:href="#linear-gradient-3"/><linearGradient id="linear-gradient-5" x1="148.88" y1="135.93" x2="199.6" y2="135.93" gradientUnits="userSpaceOnUse"><stop offset="0" stop-color="#ffdb00"/><stop offset="1" stop-color="#ddb300"/></linearGradient><linearGradient id="linear-gradient-6" x1="98.36" y1="167.88" x2="105.49" y2="152.4" gradientUnits="userSpaceOnUse"><stop offset="0" stop-color="#ffce00"/><stop offset="1" stop-color="#d0b100"/></linearGradient><linearGradient id="linear-gradient-7" x1="113.72" y1="159.54" x2="126.94" y2="159.54" gradientUnits="userSpaceOnUse"><stop offset="0" stop-color="#3e3c3e"/><stop offset="1" stop-color="#58595b"/></linearGradient><linearGradient id="linear-gradient-8" x1="458.11" y1="250.58" x2="458.11" y2="233.42" gradientTransform="matrix(-0.87, -0.5, 0, 1.15, 493.87, 101.92)" xlink:href="#linear-gradient-7"/><linearGradient id="linear-gradient-9" x1="147.41" y1="61.39" x2="158.46" y2="37.4" xlink:href="#linear-gradient-3"/><linearGradient id="linear-gradient-10" x1="148.88" y1="159.07" x2="153.86" y2="159.07" xlink:href="#linear-gradient-2"/><linearGradient id="linear-gradient-11" x1="142.36" y1="113.66" x2="148.88" y2="113.66" gradientUnits="userSpaceOnUse"><stop offset="0" stop-color="#474648"/><stop offset="1" stop-color="#3e3c3e"/></linearGradient><linearGradient id="linear-gradient-12" x1="91.07" y1="162.32" x2="91.07" y2="125.72" gradientTransform="matrix(0.87, 0.5, 0, 1.15, 19.8, -89.52)" xlink:href="#linear-gradient-7"/><linearGradient id="linear-gradient-13" x1="94.32" y1="91.11" x2="123.57" y2="91.11" xlink:href="#linear-gradient-2"/><linearGradient id="linear-gradient-14" x1="61.87" y1="154.54" x2="61.87" y2="58.77" xlink:href="#linear-gradient-7"/><linearGradient id="linear-gradient-15" x1="89.71" y1="168.95" x2="89.71" y2="71.14" xlink:href="#linear-gradient-7"/><linearGradient id="linear-gradient-16" x1="89.93" y1="144.21" x2="95.94" y2="153.02" gradientUnits="userSpaceOnUse"><stop offset="0" stop-color="#6d6e70"/><stop offset="0.1" stop-color="#676769"/><stop offset="0.24" stop-color="#555456"/><stop offset="0.41" stop-color="#383637"/><stop offset="0.52" stop-color="#231f20"/></linearGradient><linearGradient id="linear-gradient-17" x1="94.57" y1="208.47" x2="98.13" y2="201.93" gradientUnits="userSpaceOnUse"><stop offset="0" stop-color="#fff140"/><stop offset="0.53" stop-color="#fff9ad"/><stop offset="0.98" stop-color="#fff140"/></linearGradient><linearGradient id="linear-gradient-18" x1="50.67" y1="183.13" x2="54.23" y2="176.58" xlink:href="#linear-gradient-17"/><linearGradient id="linear-gradient-19" x1="153.76" y1="116.81" x2="161.84" y2="116.81" xlink:href="#linear-gradient-11"/><linearGradient id="linear-gradient-20" x1="157.11" y1="107.13" x2="161.22" y2="107.13" gradientTransform="translate(-14.6 25.79) rotate(-8.86)" xlink:href="#linear-gradient-11"/><linearGradient id="linear-gradient-21" x1="158.65" y1="97.18" x2="162.73" y2="97.18" xlink:href="#linear-gradient-11"/></defs><title>Asset 3</title><g id="Layer_2" data-name="Layer 2"><g id="loader"><g id="loader_2"><path class="cls-1" d="M228.14,163.22l-3.64-7.77-15.91-9.19L68.65,174.73l-.25-.14-.52.3-14,2.85,4.56,2.63L9.24,208.87A17.86,17.86,0,0,0,.8,219.17s11-.73,18-4.77L68,185.91l34.32,19.83-50,29A17.85,17.85,0,0,0,43.9,245s11-.73,18-4.77l50-28.95,10.73,6.2h48.88L186,213h6.44l9.95-5.88,28.2-2.23,35.95-20.45Zm24,19.28-30.69,17.76-4.13.3,33-19.08Zm-25.83-14.28,9.53,5.26-23.67,2.91Zm-62.63,36.16,15-8.63,3.93,2.26,28.71-16.57,31.86-3.92,5.43,3-35.09,20.31ZM229,199.72l-3.73.27,28.57-16.54,1.91,1.06Z"/><polygon class="cls-2" points="133.78 67.14 133.78 67.14 119.16 3.36 121.4 2.06 118.39 0 114.9 2.02 114.9 2.02 79.77 22.3 64.94 138.36 68.56 138.59 83.08 24.91 115.81 6.01 130.05 68.13 130.05 68.13 128 77.17 89.73 119.31 92.73 121.37 131.05 79.21 131.05 79.2 133.78 67.14"/><polygon class="cls-3" points="136.79 69.2 136.79 69.2 121.4 2.06 117.9 4.08 117.9 4.08 82.77 24.37 67.95 140.43 71.56 140.66 86.08 26.98 87.3 28.05 118.37 10.11 118.82 8.08 133.05 70.2 133.05 70.2 131 79.23 92.73 121.37 92.73 126.78 134.06 81.28 134.06 81.26 136.79 69.2"/><polygon class="cls-3" points="56.06 153.47 115.3 187.61 134.5 172.93 75.26 138.78 56.06 153.47"/><polygon class="cls-4" points="89.64 119.5 148.88 153.64 148.88 159.05 89.64 124.91 89.64 119.5"/><polygon class="cls-5" points="89.64 130.44 148.88 164.58 148.88 159.05 89.64 124.91 89.64 130.44"/><polygon class="cls-6" points="89.64 130.44 148.88 164.58 134.5 172.93 75.26 138.78 89.64 130.44"/><polygon class="cls-2" points="89.64 119.5 148.88 153.64 152.2 150.01 92.96 115.87 89.64 119.5"/><polygon class="cls-2" points="189.93 99.41 189.93 99.41 175.31 35.62 177.54 34.33 174.35 32.38 171.04 34.29 171.04 34.29 135.91 54.57 121.09 170.63 124.7 170.86 139.22 57.18 171.96 38.28 186.19 100.4 186.19 100.4 184.14 109.44 145.87 151.58 148.88 153.64 187.2 111.48 187.2 111.46 189.93 99.41"/><polygon class="cls-7" points="198.64 137.68 184.88 130.77 195.55 119.6 199.59 131.48 198.64 137.68"/><path class="cls-8" d="M204.81,141.2l-21.45,37.23s-9.19-5.3-11.94-6.87-4.47-5-4.47-9.85c0-9.69,6.8-21.47,15.19-26.32,4.24-2.44,8.07-2.65,10.83-1S204.81,141.2,204.81,141.2Z"/><ellipse class="cls-9" cx="194.06" cy="159.81" rx="21.48" ry="12.4" transform="matrix(0.5, -0.87, 0.87, 0.5, -41.36, 247.97)"/><ellipse class="cls-7" cx="194.06" cy="159.81" rx="11.76" ry="6.79" transform="translate(-41.36 247.97) rotate(-60)"/><path class="cls-10" d="M197.34,157.91a7.25,7.25,0,0,1-3.28,5.68c-1.81,1-3.27.2-3.27-1.89a7.25,7.25,0,0,1,3.27-5.68C195.87,155,197.34,155.82,197.34,157.91Z"/><path class="cls-11" d="M199.6,131.48v-13l-48.47,44.82-25,14.42v15.94l50.45-29.13,1.78-6.13c1.31-9.08,6-17.82,14-22.73Z"/><polygon class="cls-12" points="176.61 164.51 126.16 193.64 126.16 188.53 178.39 158.38 176.61 164.51"/><path class="cls-13" d="M138.91,179.26l-21.44,37.23s-9.19-5.31-11.94-6.88-4.48-5-4.48-9.85c0-9.69,6.81-21.47,15.19-26.31,4.25-2.45,8.08-2.66,10.84-1S138.91,179.26,138.91,179.26Z"/><ellipse class="cls-9" cx="128.17" cy="197.86" rx="21.48" ry="12.4" transform="translate(-107.27 209.93) rotate(-60)"/><ellipse class="cls-7" cx="128.17" cy="197.86" rx="11.76" ry="6.79" transform="matrix(0.5, -0.87, 0.87, 0.5, -107.27, 209.93)"/><path class="cls-10" d="M131.45,196a7.26,7.26,0,0,1-3.28,5.68c-1.81,1-3.28.19-3.28-1.9a7.23,7.23,0,0,1,3.28-5.67C130,193,131.45,193.88,131.45,196Z"/><polygon class="cls-14" points="148.88 159.05 195.86 107.29 199.59 118.46 151.13 163.28 148.88 164.58 148.88 159.05"/><path class="cls-12" d="M123.37,180.05a25.37,25.37,0,0,1,4.26-3.12c4.46-2.57,8.5-2.82,11.43-1.13,0,0,0-.75,0-.75-4.09-2.34-11.18-3.11-17.26-3.3s-57.1-26.34-57.1-26.34v.75Z"/><path class="cls-15" d="M123.37,179.3a25.37,25.37,0,0,1,4.26-3.12c4.46-2.58,8.5-2.82,11.43-1.13,0,0-55.72-32.09-58.59-33.81s-7-1.53-11.53,1.08a26.08,26.08,0,0,0-4.24,3.1Z"/><polygon class="cls-12" points="143.03 178.81 139.06 175.8 139.06 175.05 143.59 178.48 143.03 178.81"/><polygon class="cls-3" points="192.93 101.47 192.93 101.47 177.64 34.28 174.05 36.35 174.05 36.35 138.91 56.63 124.09 172.69 127.71 172.93 142.22 59.25 174.96 40.34 189.2 102.46 189.2 102.46 187.15 111.5 148.88 153.64 148.88 159.05 190.2 113.55 190.2 113.53 192.93 101.47"/><path class="cls-16" d="M122.39,167.34a22,22,0,0,0-8.67,4.39L116,153.49s4.17-6.77,5.54-6.09c.38.19,5.36,3,5.36,3l-.59,4.65Z"/><polygon class="cls-17" points="70.14 146.32 121.84 176.46 124.16 158.22 72.46 128.15 70.14 146.32"/><path class="cls-3" d="M130.51,172.08a21.8,21.8,0,0,0-8.67,4.38l2.32-18.24s6.83-11.09,5.87-3.45S130.51,172.08,130.51,172.08Z"/><path class="cls-18" d="M147.53,61.16h0l0,0Z"/><path class="cls-9" d="M147.5,61.14h0Z"/><polygon class="cls-19" points="151.13 163.28 148.88 164.58 148.88 159.05 153.86 153.56 151.13 163.28"/><polygon class="cls-6" points="190.2 113.53 192.11 105.12 195.86 107.29 190.2 113.53"/><path class="cls-20" d="M118.38,0,79.76,22.3,139,56.55l38.62-22.27ZM88.77,22.31,118.38,5.22l50.26,29.05L139,51.36Z"/><polygon class="cls-2" points="137.99 60.83 79.34 26.94 79.77 22.3 138.41 56.19 137.99 60.83"/><polygon class="cls-2" points="164.41 36.72 118.37 10.11 118.37 5.22 168.64 34.27 164.41 36.72"/><path class="cls-3" d="M167.21,31.27,123.57,6.08a9,9,0,0,0-8.19,0L89.78,20.85c-2.26,1.31-2.26,3.43,0,4.73l43.64,25.2a9.09,9.09,0,0,0,8.19,0L167.21,36C169.47,34.7,169.47,32.58,167.21,31.27ZM142.28,19.69l-14.52,8.39-7.55-4.36,14.52-8.39,8.18,4.73Zm1.38.8,7.51,4.34-14.52,8.38-7.51-4.33Zm-24.83,2.43-7.56-4.36,14.53-8.38,7.55,4.36Zm-1.29.75-13.1,7.56-7.55-4.36L110,19.31Zm1.38.79,7.55,4.36-13.1,7.57L105.82,32Zm8.93,5.16L135.36,34l-13.1,7.56-7.51-4.34Zm8.89,5.14,7.55,4.36-13.1,7.56-7.55-4.36ZM138,34l14.52-8.38L151.46,25l8.64,5-14.52,8.38ZM117.81,7.49a3.66,3.66,0,0,1,3.32,0l3.42,2-.13-.08L109.9,17.77l-5-2.86ZM92.22,22.26l11.44-6.6,5,2.85-13.1,7.57-3.29-1.9A1,1,0,0,1,92.22,22.26Zm47,27.11a3.66,3.66,0,0,1-3.32,0l-3.29-1.9,13.1-7.56,5,2.86ZM164.77,34.6l-14,8.07,1.11-.65L147,39.17l14.52-8.39,3.29,1.9A1,1,0,0,1,164.77,34.6Z"/><path class="cls-20" d="M167.21,30.08,123.57,4.89a9,9,0,0,0-8.19,0L89.78,19.66c-2.26,1.31-2.26,3.43,0,4.73l43.64,25.2a9.09,9.09,0,0,0,8.19,0l25.6-14.78C169.47,33.51,169.47,31.39,167.21,30.08ZM142.28,18.5l-14.52,8.39-7.55-4.36,14.52-8.39,8.18,4.73Zm1.38.8,7.51,4.34L136.65,32l-7.51-4.34Zm-24.83,2.43-7.56-4.36L125.8,9l7.55,4.36Zm-1.29.75L104.44,30l-7.55-4.36L110,18.12Zm1.38.79,7.55,4.36-13.1,7.57-7.55-4.36Zm8.93,5.16,7.51,4.34-13.1,7.56L114.75,36Zm8.89,5.13,7.55,4.36-13.1,7.57-7.55-4.36Zm1.29-.74,14.52-8.39-1.09-.62,8.64,5-14.52,8.39ZM117.81,6.29a3.73,3.73,0,0,1,3.32,0l3.42,2-.13-.08L109.9,16.58l-5-2.86ZM92.22,21.07l11.44-6.61,5,2.86-13.1,7.56L92.22,23A1,1,0,0,1,92.22,21.07Zm47,27.11a3.66,3.66,0,0,1-3.32,0l-3.29-1.9,13.1-7.56,5,2.86Zm25.59-14.77-14,8.06,1.11-.64L147,38l14.52-8.39,3.29,1.9A1,1,0,0,1,164.77,33.41Z"/><path class="cls-6" d="M184.83,106.42,149,148.15,99.39,119.44l0-14.8a10.94,10.94,0,0,1,5.49-9.48l30.32-17.45,4.51,1,.46-3.59,45.73,26.45Z"/><path class="cls-11" d="M184.14,109.44,149,148.15l0-14.79a11,11,0,0,1,5.5-9.49l30.32-17.45Z"/><polygon class="cls-3" points="172.17 103.31 148.88 116.81 148.88 109.76 174.4 95 172.17 103.31"/><path class="cls-21" d="M142.36,116.58v-6.84l6.52,0v7A6.58,6.58,0,0,1,142.36,116.58Z"/><polygon class="cls-3" points="180.09 73.76 172.17 103.31 166.87 99.5 177.18 61.06 180.09 73.76"/><path class="cls-2" d="M145.27,57.49l-6.85,25.58L166.87,99.5l10.31-38.44C165.46,48.94,159,49.54,159,49.54Z"/><polygon class="cls-2" points="119.58 103.42 142.36 116.58 142.36 109.74 119.58 96.59 119.58 103.42"/><path class="cls-22" d="M119.58,103.35a1.6,1.6,0,0,1-.8-1.34c0-.56,0-6.67,0-6.67l.8,1.25Z"/><path class="cls-20" d="M142.36,109.74,119.58,96.59a1.6,1.6,0,0,1,0-2.78l18.83-10.74A46.49,46.49,0,0,1,166.87,99.5l-18,10.26A6.54,6.54,0,0,1,142.36,109.74Z"/><polygon class="cls-23" points="103.84 146.43 88.37 137.5 93.5 98.21 108.97 107.13 103.84 146.43"/><polygon class="cls-20" points="118.45 101.7 102.98 92.77 93.5 98.21 108.97 107.13 118.45 101.7"/><polygon class="cls-3" points="103.84 146.43 112.07 151.19 118.45 101.7 108.97 107.13 103.84 146.43"/><polygon class="cls-2" points="108.07 103.6 99.72 98.78 100.24 94.4 108.59 99.22 108.07 103.6"/><polygon class="cls-2" points="113.71 96.29 105.36 91.47 100.24 94.4 108.59 99.22 113.71 96.29"/><polygon class="cls-3" points="108.07 103.6 113.18 100.63 113.71 96.29 108.59 99.22 108.07 103.6"/><path class="cls-24" d="M102.12,93.89a8.14,8.14,0,0,1-2.38-2c-.82-1.13-5.42-6.53-5.42-6.53l29.25,5.84s-4.87,3.91-6.4,4.82a6,6,0,0,1-2.24.63C110.34,97.29,104.73,95.42,102.12,93.89Z"/><path class="cls-2" d="M97.8,88.07c-4.37-2.56-7.79-6.57.14-7.59s15.66,1.67,21,4.75,8,6.55.3,7.54S102.17,90.63,97.8,88.07Z"/><polygon class="cls-3" points="74.29 158.17 68.01 154.54 68.01 70.22 74.29 73.85 74.29 158.17"/><polygon class="cls-25" points="83.58 79.32 70.97 72.03 70.97 75.43 83.58 82.71 83.58 79.32"/><polygon class="cls-25" points="83.58 95.7 70.82 88.34 70.82 82.17 83.58 89.53 83.58 95.7"/><polygon class="cls-20" points="83.58 89.53 83.58 85.53 74.29 80.18 70.82 82.16 83.58 89.53"/><polygon class="cls-20" points="63.15 63.05 69.43 59.42 62.03 55.14 55.74 58.77 63.15 63.05"/><polygon class="cls-3" points="99.25 167.81 92.97 171.44 92.97 91.38 99.25 87.75 99.25 167.81"/><polygon class="cls-3" points="102.13 89.41 95.84 93.03 95.84 81.92 102.13 78.29 102.13 89.41"/><polygon class="cls-3" points="94.72 74.02 88.44 77.65 88.44 73.94 94.72 70.31 94.72 74.02"/><rect class="cls-26" x="47.77" y="106.99" width="6.09" height="45.57"/><polygon class="cls-27" points="75.28 158.74 76.33 159.34 76.33 75.13 75.28 74.53 75.28 158.74"/><polygon class="cls-28" points="68.01 62.15 63.15 59.34 63.15 63.05 58.62 60.43 55.74 58.77 55.74 69.88 58.62 71.54 58.62 149.12 66.26 153.53 68.01 154.54 68.01 62.15"/><polygon class="cls-29" points="92.97 80.26 88.44 77.65 88.44 73.94 83.58 71.14 83.58 163.53 85.3 164.52 85.3 164.52 85.35 164.55 88.44 166.34 88.44 166.34 92.97 168.95 92.97 91.37 95.84 93.03 95.84 81.92 92.97 80.26"/><path class="cls-30" d="M105.5,131.54,55.75,102.82a3.48,3.48,0,0,0-3.47-.38l-4.85,2.8,6.45,2.1s50.05,30.25,50.05,31.35l1.14,59.92-1,3.4,4.88-2.8a2.94,2.94,0,0,0,1.27-2.73v-57.1A10.15,10.15,0,0,0,105.5,131.54Z"/><polygon class="cls-2" points="92.96 194.06 58.65 174.24 58.65 149.14 92.96 168.95 92.96 194.06"/><path class="cls-3" d="M78.31,174.76l-5-2.89A5.48,5.48,0,0,1,71,167.5v-4.19c0-1.69,1-2.46,2.29-1.73l5,2.9a5.43,5.43,0,0,1,2.29,4.36V173C80.6,174.72,79.58,175.49,78.31,174.76Z"/><polygon class="cls-3" points="92.96 189.73 88.44 187.12 88.44 170.32 92.96 172.93 92.96 189.73"/><polygon class="cls-3" points="63.15 172.52 58.62 169.9 58.62 153.1 63.15 155.72 63.15 172.52"/><polygon class="cls-2" points="83.58 79.32 68.01 70.33 68.01 62.15 83.58 71.14 83.58 79.32"/><polygon class="cls-26" points="69.07 145.29 67.66 146.11 67.66 118.33 69.07 119.14 69.07 145.29"/><polygon class="cls-26" points="78.08 150.5 76.67 151.31 76.67 123.53 78.08 124.34 78.08 150.5"/><polygon class="cls-26" points="87.09 155.7 85.68 156.51 85.68 128.73 87.09 129.55 87.09 155.7"/><polygon class="cls-26" points="96.1 160.9 94.69 161.72 94.69 133.94 96.1 134.75 96.1 160.9"/><polygon class="cls-26" points="60.06 140.09 58.65 140.91 58.65 113.13 60.06 113.94 60.06 140.09"/><polygon class="cls-20" points="65.93 136.07 60.06 132.68 58.65 133.5 65.93 137.71 65.93 136.07"/><polygon class="cls-20" points="65.93 143.48 60.06 140.09 58.65 140.9 65.93 145.11 65.93 143.48"/><polygon class="cls-20" points="56.92 130.87 50.47 127.15 49.06 127.97 56.92 132.5 56.92 130.87"/><polygon class="cls-20" points="56.92 138.28 50.47 134.56 49.06 135.37 56.92 139.91 56.92 138.28"/><polygon class="cls-20" points="74.94 141.28 69.07 137.88 67.66 138.7 74.94 142.91 74.94 141.28"/><polygon class="cls-20" points="74.94 148.69 69.07 145.3 67.66 146.11 74.94 150.32 74.94 148.69"/><polygon class="cls-20" points="83.95 146.47 78.08 143.08 76.67 143.9 83.95 148.1 83.95 146.47"/><polygon class="cls-20" points="83.95 153.88 78.08 150.5 76.67 151.31 83.95 155.51 83.95 153.88"/><polygon class="cls-20" points="92.96 151.68 87.09 148.28 85.68 149.1 92.96 153.31 92.96 151.68"/><polygon class="cls-20" points="92.96 159.09 87.09 155.7 85.68 156.51 92.96 160.72 92.96 159.09"/><polygon class="cls-20" points="102.55 157.22 96.1 153.5 94.69 154.31 102.55 158.84 102.55 157.22"/><polygon class="cls-20" points="102.55 164.62 96.1 160.9 94.69 161.71 102.55 166.25 102.55 164.62"/><path class="cls-25" d="M100.68,134.31,50.93,105.59c-2.62-1.52-4.74-.46-4.74,2.35V165a10.12,10.12,0,0,0,4.74,7.83l49.75,28.73c2.62,1.51,4.74.46,4.74-2.36v-57.1A10.12,10.12,0,0,0,100.68,134.31Zm1.87,63.27c0,1.11-.84,1.52-1.87.93L50.93,169.79a4,4,0,0,1-1.87-3.09V109.6c0-1.11.84-1.52,1.87-.93l49.75,28.72a4,4,0,0,1,1.87,3.09Z"/><polygon class="cls-25" points="102.55 160.7 49.06 129.82 49.06 127.97 102.55 158.84 102.55 160.7"/><polygon class="cls-25" points="56.92 141.76 56.92 112.13 58.65 113.13 58.65 142.76 56.92 141.76"/><polygon class="cls-25" points="74.94 152.17 74.94 122.53 76.67 123.53 76.67 153.16 74.94 152.17"/><polygon class="cls-25" points="65.93 146.97 65.93 117.33 67.66 118.33 67.66 147.96 65.93 146.97"/><polygon class="cls-25" points="92.96 162.57 92.96 132.94 94.69 133.94 94.69 163.57 92.96 162.57"/><polygon class="cls-25" points="83.95 157.37 83.95 127.74 85.68 128.73 85.68 158.37 83.95 157.37"/><polygon class="cls-25" points="102.55 168.1 49.06 137.22 49.06 135.37 102.55 166.25 102.55 168.1"/><path class="cls-12" d="M94.34,199.94a7.21,7.21,0,0,1-3.7,6.5l9.58,5.54a7.24,7.24,0,0,0,3.71-6.51Z"/><path class="cls-12" d="M43.9,238.84v-1.75s3.39-5.61,8.45-8.55l36.91-21.3L98.84,211l1.38,1-38.29,22.1C54.86,238.12,43.9,238.84,43.9,238.84Z"/><polygon class="cls-12" points="102.55 170.98 102.55 171.15 94.34 166.41 94.34 199.95 103.93 205.48 103.93 172.77 103.93 171.94 103.93 170.18 102.55 170.98"/><path class="cls-6" d="M43.9,237.09a17.85,17.85,0,0,1,8.45-10.3l36.91-21.31L98.84,211,61.93,232.33C54.86,236.37,43.9,237.09,43.9,237.09Z"/><path class="cls-31" d="M93,199a7.21,7.21,0,0,1-3.7,6.5L98.84,211a7.22,7.22,0,0,0,3.71-6.51Z"/><polygon class="cls-6" points="102.55 204.51 92.96 198.98 92.96 165.44 102.55 170.97 102.55 204.51"/><polygon class="cls-6" points="102.55 170.98 103.93 170.18 94.34 164.64 92.96 165.44 102.55 170.98"/><path class="cls-12" d="M50.44,174.59a7.22,7.22,0,0,1-3.7,6.5l9.58,5.54A7.22,7.22,0,0,0,60,180.12Z"/><path class="cls-12" d="M0,213.49v-1.75s3.39-5.6,8.45-8.54l36.91-21.31,9.58,3.78,1.38,1L18,208.73C11,212.77,0,213.49,0,213.49Z"/><polygon class="cls-12" points="58.65 145.63 58.65 145.8 50.44 141.06 50.44 174.6 60.03 180.14 60.03 147.42 60.03 146.59 60.03 144.83 58.65 145.63"/><path class="cls-6" d="M0,211.74a17.85,17.85,0,0,1,8.45-10.3l36.91-21.3,9.58,5.53L18,207C11,211,0,211.74,0,211.74Z"/><path class="cls-32" d="M49.06,173.63a7.22,7.22,0,0,1-3.7,6.51l9.58,5.53a7.22,7.22,0,0,0,3.71-6.51Z"/><polygon class="cls-6" points="58.65 179.16 49.06 173.63 49.06 140.09 58.65 145.62 58.65 179.16"/><polygon class="cls-6" points="58.65 145.63 60.03 144.83 50.44 139.29 49.06 140.09 58.65 145.63"/><polygon class="cls-20" points="95.84 81.92 102.13 78.29 94.72 74.02 88.44 77.65 95.84 81.92"/><polygon class="cls-20" points="88.44 73.94 94.72 70.31 69.43 55.71 63.15 59.34 88.44 73.94"/><polygon class="cls-3" points="140.41 73.48 131.09 146.43 128.45 138.59 137.34 68.94 140.41 73.48"/><polygon class="cls-2" points="136.79 73.48 127.47 146.43 124.83 141.54 134.12 68.58 136.79 73.48"/><path class="cls-3" d="M136.24,77.4l-2.05-4.26a4,4,0,0,1-1.69-3.22l-2.58-3.65,3.17-1.84a1.08,1.08,0,0,1,1.1.09l4.09,2.36A4,4,0,0,1,140,70.1v4.13a1.48,1.48,0,0,1-.59,1.36Z"/><path class="cls-33" d="M135.14,77.33,131,75a4,4,0,0,1-1.68-3.21V67.62c0-1.24.75-1.81,1.68-1.27l4.1,2.36a4,4,0,0,1,1.68,3.22v4.13C136.82,77.3,136.07,77.87,135.14,77.33Z"/><path class="cls-3" d="M80.06,45l-2-4.26a4,4,0,0,1-1.68-3.22l-2.58-3.65L76.92,32a1.07,1.07,0,0,1,1.09.09l4.1,2.37a4,4,0,0,1,1.68,3.21V41.8a1.5,1.5,0,0,1-.58,1.37C82.91,43.33,80.06,45,80.06,45Z"/><path class="cls-33" d="M79,44.9l-4.09-2.36a4,4,0,0,1-1.69-3.22V35.19c0-1.24.76-1.81,1.69-1.27L79,36.29a4,4,0,0,1,1.69,3.21v4.13C80.65,44.87,79.89,45.44,79,44.9Z"/><path class="cls-34" d="M160.66,118.46a6.33,6.33,0,0,1-5.72,0c-1.58-.91-1.58-2.39,0-3.3a6.27,6.27,0,0,1,5.72,0C162.24,116.07,162.24,117.55,160.66,118.46Z"/><rect class="cls-35" x="158.64" y="97.14" width="1.04" height="19.99" transform="translate(18.39 -23.23) rotate(8.86)"/><circle class="cls-36" cx="160.69" cy="97.18" r="2.04"/></g></g></g></svg>