<svg xmlns="http://www.w3.org/2000/svg" xmlns:xlink="http://www.w3.org/1999/xlink" viewBox="0 0 297.02 265.19"><defs><style>.cls-1{isolation:isolate;}.cls-2,.cls-56{fill:#bbbdbf;}.cls-3{fill:#58595b;}.cls-4{fill:#302d2e;}.cls-5{fill:url(#linear-gradient);}.cls-6{fill:url(#linear-gradient-2);}.cls-7{fill:#fff140;}.cls-8{fill:#282323;}.cls-9{fill:url(#linear-gradient-3);}.cls-10{fill:#302c2c;}.cls-11{fill:#353131;}.cls-12{fill:#ddb300;}.cls-13{fill:#c6a000;}.cls-14{fill:url(#linear-gradient-4);}.cls-15{fill:url(#linear-gradient-5);}.cls-16{fill:url(#linear-gradient-6);}.cls-17{fill:url(#linear-gradient-7);}.cls-18{fill:url(#linear-gradient-8);}.cls-19{fill:url(#linear-gradient-9);}.cls-20{fill:url(#linear-gradient-10);}.cls-21{fill:#6d6e70;}.cls-22{fill:url(#linear-gradient-11);}.cls-23{fill:#828282;}.cls-24{fill:url(#linear-gradient-12);}.cls-25{fill:url(#linear-gradient-13);}.cls-26{fill:#404041;}.cls-27{fill:#231f20;}.cls-28{fill:#ffe471;}.cls-29{fill:url(#linear-gradient-14);}.cls-30{fill:url(#linear-gradient-15);}.cls-31{fill:url(#linear-gradient-16);}.cls-32{fill:url(#linear-gradient-17);}.cls-33{fill:url(#linear-gradient-18);}.cls-34{fill:#ff541f;}.cls-35{fill:url(#linear-gradient-19);}.cls-36{fill:url(#linear-gradient-20);}.cls-37{fill:url(#linear-gradient-21);}.cls-38{fill:url(#linear-gradient-22);}.cls-39{fill:#af9b77;}.cls-40{fill:#a5937f;}.cls-41{fill:#77654d;}.cls-42{fill:url(#linear-gradient-23);}.cls-43{fill:#83765f;}.cls-44{fill:url(#linear-gradient-24);}.cls-45{fill:url(#linear-gradient-25);}.cls-46{fill:#b29970;}.cls-47{fill:url(#linear-gradient-26);}.cls-48{fill:url(#linear-gradient-27);}.cls-49{fill:url(#linear-gradient-28);}.cls-50{fill:url(#linear-gradient-29);}.cls-51{fill:url(#linear-gradient-30);}.cls-52{fill:url(#linear-gradient-31);}.cls-53{fill:url(#linear-gradient-32);}.cls-54{fill:url(#linear-gradient-33);}.cls-55{fill:url(#linear-gradient-34);}.cls-56,.cls-62,.cls-63,.cls-64,.cls-65{mix-blend-mode:multiply;}.cls-57{fill:url(#linear-gradient-35);}.cls-58{fill:url(#linear-gradient-36);}.cls-59{fill:url(#linear-gradient-37);}.cls-60{opacity:0.66;}.cls-61{fill:#fff;}.cls-62{fill:#c6c6c6;}.cls-63{fill:#d0d2d3;}.cls-64{fill:#af9b7b;}.cls-65{fill:#aaa;}.cls-66{fill:url(#linear-gradient-38);}.cls-67{fill:url(#linear-gradient-39);}.cls-68{fill:url(#linear-gradient-40);}.cls-69{fill:url(#linear-gradient-41);}.cls-70{fill:url(#linear-gradient-42);}.cls-71{fill:url(#linear-gradient-43);}.cls-72{fill:url(#linear-gradient-44);}.cls-73{fill:url(#linear-gradient-45);}.cls-74{fill:url(#linear-gradient-46);}.cls-75{fill:url(#linear-gradient-47);}.cls-76{fill:url(#linear-gradient-48);}.cls-77{fill:url(#linear-gradient-49);}.cls-78{fill:url(#linear-gradient-50);}.cls-79{fill:url(#linear-gradient-51);}.cls-80{fill:url(#linear-gradient-52);}</style><linearGradient id="linear-gradient" x1="120.43" y1="139.27" x2="179.67" y2="139.27" gradientUnits="userSpaceOnUse"><stop offset="0" stop-color="#3e3c3e"/><stop offset="1" stop-color="#474648"/></linearGradient><linearGradient id="linear-gradient-2" x1="120.43" y1="144.74" x2="179.67" y2="144.74" gradientUnits="userSpaceOnUse"><stop offset="0" stop-color="#3e3c3e"/><stop offset="0.72" stop-color="#3e3c3e"/><stop offset="0.86" stop-color="#3e3c3e"/></linearGradient><linearGradient id="linear-gradient-3" x1="204.78" y1="174.4" x2="223.66" y2="133.42" gradientUnits="userSpaceOnUse"><stop offset="0" stop-color="#3d393b"/><stop offset="0.14" stop-color="#39302f"/><stop offset="0.73" stop-color="#515c60"/><stop offset="0.88" stop-color="#4f595d"/><stop offset="0.99" stop-color="#4b5053"/><stop offset="1" stop-color="#4a4f52"/></linearGradient><linearGradient id="linear-gradient-4" x1="138.89" y1="212.45" x2="157.77" y2="171.48" xlink:href="#linear-gradient-3"/><linearGradient id="linear-gradient-5" x1="179.67" y1="135.93" x2="230.39" y2="135.93" gradientUnits="userSpaceOnUse"><stop offset="0" stop-color="#ffdb00"/><stop offset="1" stop-color="#ddb300"/></linearGradient><linearGradient id="linear-gradient-6" x1="129.15" y1="167.88" x2="136.28" y2="152.4" gradientUnits="userSpaceOnUse"><stop offset="0" stop-color="#ffce00"/><stop offset="1" stop-color="#d0b100"/></linearGradient><linearGradient id="linear-gradient-7" x1="144.51" y1="159.54" x2="157.73" y2="159.54" gradientUnits="userSpaceOnUse"><stop offset="0" stop-color="#3e3c3e"/><stop offset="1" stop-color="#58595b"/></linearGradient><linearGradient id="linear-gradient-8" x1="31.49" y1="131.62" x2="31.49" y2="114.47" gradientTransform="matrix(-0.87, -0.5, 0, 1.15, 155.21, 25.97)" xlink:href="#linear-gradient-7"/><linearGradient id="linear-gradient-9" x1="178.2" y1="61.39" x2="189.25" y2="37.4" xlink:href="#linear-gradient-3"/><linearGradient id="linear-gradient-10" x1="179.67" y1="159.07" x2="184.65" y2="159.07" xlink:href="#linear-gradient-2"/><linearGradient id="linear-gradient-11" x1="173.15" y1="113.66" x2="179.67" y2="113.66" gradientUnits="userSpaceOnUse"><stop offset="0" stop-color="#474648"/><stop offset="1" stop-color="#3e3c3e"/></linearGradient><linearGradient id="linear-gradient-12" x1="154.7" y1="43.36" x2="154.7" y2="6.77" gradientTransform="matrix(0.87, 0.5, 0, 1.15, -4.51, 16.03)" xlink:href="#linear-gradient-7"/><linearGradient id="linear-gradient-13" x1="125.11" y1="91.11" x2="154.36" y2="91.11" xlink:href="#linear-gradient-2"/><linearGradient id="linear-gradient-14" x1="92.66" y1="154.54" x2="92.66" y2="58.77" xlink:href="#linear-gradient-7"/><linearGradient id="linear-gradient-15" x1="120.5" y1="168.95" x2="120.5" y2="71.14" xlink:href="#linear-gradient-7"/><linearGradient id="linear-gradient-16" x1="120.72" y1="144.21" x2="126.73" y2="153.02" gradientUnits="userSpaceOnUse"><stop offset="0" stop-color="#6d6e70"/><stop offset="0.1" stop-color="#676769"/><stop offset="0.24" stop-color="#555456"/><stop offset="0.41" stop-color="#383637"/><stop offset="0.52" stop-color="#231f20"/></linearGradient><linearGradient id="linear-gradient-17" x1="125.36" y1="208.47" x2="128.92" y2="201.93" gradientUnits="userSpaceOnUse"><stop offset="0" stop-color="#fff140"/><stop offset="0.53" stop-color="#fff9ad"/><stop offset="0.98" stop-color="#fff140"/></linearGradient><linearGradient id="linear-gradient-18" x1="81.46" y1="183.13" x2="85.02" y2="176.58" xlink:href="#linear-gradient-17"/><linearGradient id="linear-gradient-19" x1="184.55" y1="116.81" x2="192.63" y2="116.81" xlink:href="#linear-gradient-11"/><linearGradient id="linear-gradient-20" x1="187.9" y1="107.13" x2="192.01" y2="107.13" gradientTransform="translate(-14.24 30.55) rotate(-8.86)" xlink:href="#linear-gradient-11"/><linearGradient id="linear-gradient-21" x1="189.44" y1="97.18" x2="193.52" y2="97.18" xlink:href="#linear-gradient-11"/><linearGradient id="linear-gradient-22" x1="722.43" y1="237.3" x2="813.1" y2="237.3" gradientTransform="matrix(-1, 0, 0, 1, 813.1, 0)" gradientUnits="userSpaceOnUse"><stop offset="0" stop-color="#cdb081"/><stop offset="1" stop-color="#e4c595"/></linearGradient><linearGradient id="linear-gradient-23" x1="694.92" y1="221.46" x2="785.59" y2="221.46" xlink:href="#linear-gradient-22"/><linearGradient id="linear-gradient-24" x1="667.56" y1="205.69" x2="758.23" y2="205.69" xlink:href="#linear-gradient-22"/><linearGradient id="linear-gradient-25" x1="667.54" y1="233.74" x2="742.23" y2="233.74" xlink:href="#linear-gradient-22"/><linearGradient id="linear-gradient-26" x1="738.16" y1="193.34" x2="813.1" y2="193.34" xlink:href="#linear-gradient-22"/><linearGradient id="linear-gradient-27" x1="9.77" y1="197.19" x2="74.95" y2="197.19" gradientUnits="userSpaceOnUse"><stop offset="0" stop-color="#826f59"/><stop offset="1" stop-color="#8a7660"/></linearGradient><linearGradient id="linear-gradient-28" x1="704.18" y1="212.75" x2="779.12" y2="212.75" xlink:href="#linear-gradient-22"/><linearGradient id="linear-gradient-29" x1="43.75" y1="216.6" x2="108.93" y2="216.6" xlink:href="#linear-gradient-27"/><linearGradient id="linear-gradient-30" x1="722.69" y1="227.33" x2="813.1" y2="227.33" gradientTransform="matrix(-1, 0, 0, 1, 813.1, 0)" gradientUnits="userSpaceOnUse"><stop offset="0" stop-color="#e4c595"/><stop offset="1" stop-color="#cdb081"/></linearGradient><linearGradient id="linear-gradient-31" x1="708.92" y1="219.38" x2="799.33" y2="219.38" xlink:href="#linear-gradient-30"/><linearGradient id="linear-gradient-32" x1="695.18" y1="211.51" x2="785.6" y2="211.51" xlink:href="#linear-gradient-30"/><linearGradient id="linear-gradient-33" x1="681.42" y1="203.56" x2="771.83" y2="203.56" xlink:href="#linear-gradient-30"/><linearGradient id="linear-gradient-34" x1="667.54" y1="195.54" x2="757.95" y2="195.54" xlink:href="#linear-gradient-30"/><linearGradient id="linear-gradient-35" x1="120.54" y1="190.74" x2="140.84" y2="174.96" gradientTransform="translate(-85.02)" gradientUnits="userSpaceOnUse"><stop offset="0" stop-color="#b6956b"/><stop offset="1" stop-color="#c3a277"/></linearGradient><linearGradient id="linear-gradient-36" x1="135.03" y1="148.46" x2="151.36" y2="171.99" gradientTransform="translate(-85.02)" xlink:href="#linear-gradient-22"/><linearGradient id="linear-gradient-37" x1="-696.99" y1="191.36" x2="-677.56" y2="174.52" gradientTransform="matrix(-1, 0, 0, 1, -615.92, 0)" gradientUnits="userSpaceOnUse"><stop offset="0.13" stop-color="#a78258"/><stop offset="0.51" stop-color="#a27d53"/><stop offset="1" stop-color="#926f45"/></linearGradient><linearGradient id="linear-gradient-38" x1="146.25" y1="205.59" x2="166.56" y2="189.81" xlink:href="#linear-gradient-35"/><linearGradient id="linear-gradient-39" x1="160.74" y1="163.31" x2="177.08" y2="186.84" gradientTransform="translate(-85.02)" xlink:href="#linear-gradient-22"/><linearGradient id="linear-gradient-40" x1="-722.71" y1="206.21" x2="-703.28" y2="189.37" xlink:href="#linear-gradient-37"/><linearGradient id="linear-gradient-41" x1="171.97" y1="220.43" x2="192.28" y2="204.65" xlink:href="#linear-gradient-35"/><linearGradient id="linear-gradient-42" x1="186.46" y1="178.15" x2="202.8" y2="201.69" gradientTransform="translate(-85.02)" xlink:href="#linear-gradient-22"/><linearGradient id="linear-gradient-43" x1="-748.43" y1="221.06" x2="-728.99" y2="204.21" xlink:href="#linear-gradient-37"/><linearGradient id="linear-gradient-44" x1="94.82" y1="205.58" x2="115.13" y2="189.81" xlink:href="#linear-gradient-35"/><linearGradient id="linear-gradient-45" x1="109.31" y1="163.31" x2="125.65" y2="186.84" gradientTransform="translate(-85.02)" xlink:href="#linear-gradient-22"/><linearGradient id="linear-gradient-46" x1="-671.28" y1="206.21" x2="-651.84" y2="189.36" xlink:href="#linear-gradient-37"/><linearGradient id="linear-gradient-47" x1="120.54" y1="220.44" x2="140.85" y2="204.66" xlink:href="#linear-gradient-35"/><linearGradient id="linear-gradient-48" x1="135.03" y1="178.16" x2="151.37" y2="201.69" gradientTransform="translate(-85.02)" xlink:href="#linear-gradient-22"/><linearGradient id="linear-gradient-49" x1="-696.99" y1="221.06" x2="-677.56" y2="204.22" xlink:href="#linear-gradient-37"/><linearGradient id="linear-gradient-50" x1="146.24" y1="235.25" x2="166.55" y2="219.47" xlink:href="#linear-gradient-35"/><linearGradient id="linear-gradient-51" x1="160.73" y1="192.97" x2="177.07" y2="216.51" gradientTransform="translate(-85.02)" xlink:href="#linear-gradient-22"/><linearGradient id="linear-gradient-52" x1="-722.7" y1="235.88" x2="-703.27" y2="219.03" xlink:href="#linear-gradient-37"/></defs><title>Asset 4</title><g class="cls-1"><g id="Layer_2" data-name="Layer 2"><g id="loader"><g id="loader_1"><path class="cls-2" d="M258.63,163.18,255,155.41l-15.92-9.19L99.14,174.69l-.25-.14-.51.29-14,2.86,4.56,2.63L39.74,208.82a17.85,17.85,0,0,0-8.45,10.3s11-.72,18-4.76l36.5-21.15L120.16,213,82.84,234.65A17.85,17.85,0,0,0,74.39,245s11-.72,18-4.76l37.31-21.62,13.47,7.77-14.51,3.29-38,21.9-10,13.62,10.59,0,65-37.51-5.32-3.07h0l-15.79-9.12,7.34-4.26,10.73,6.2H202L216.49,213h6.43l10-5.87,28.2-2.23L297,184.4ZM91.14,190.13l7.35-4.26,34.32,19.83L125.47,210Zm165.63-21.95,9.52,5.26-23.67,2.9Zm-62.64,36.16,15-8.64L213,198l28.71-16.57,31.86-3.93,5.44,3-35.1,20.31Zm53.64-3.82,33-19.09,1.86,1-30.69,17.76Zm11.71-.84-3.72.27,28.56-16.54,1.91,1.06Z"/><polygon class="cls-3" points="164.57 67.14 164.57 67.14 149.95 3.36 152.19 2.06 149.18 0 145.69 2.02 145.69 2.02 110.56 22.3 95.73 138.36 99.35 138.59 113.87 24.91 146.6 6.01 160.84 68.13 160.84 68.13 158.79 77.17 120.52 119.31 123.52 121.37 161.84 79.21 161.84 79.2 164.57 67.14"/><polygon class="cls-4" points="167.58 69.21 167.58 69.2 152.19 2.06 148.69 4.08 148.69 4.08 113.56 24.37 98.74 140.43 102.35 140.66 116.87 26.98 118.09 28.05 149.16 10.11 149.61 8.08 163.84 70.2 163.84 70.2 161.79 79.23 123.52 121.37 123.52 126.78 164.85 81.28 164.85 81.26 167.58 69.21"/><polygon class="cls-4" points="86.85 153.47 146.09 187.61 165.29 172.93 106.05 138.78 86.85 153.47"/><polygon class="cls-5" points="120.43 119.5 179.67 153.64 179.67 159.05 120.43 124.91 120.43 119.5"/><polygon class="cls-6" points="120.43 130.44 179.67 164.58 179.67 159.05 120.43 124.91 120.43 130.44"/><polygon class="cls-7" points="120.43 130.44 179.67 164.58 165.29 172.93 106.05 138.78 120.43 130.44"/><polygon class="cls-3" points="120.43 119.5 179.67 153.64 182.99 150.01 123.75 115.87 120.43 119.5"/><polygon class="cls-3" points="220.72 99.41 220.72 99.41 206.1 35.62 208.33 34.33 205.14 32.38 201.83 34.29 201.83 34.29 166.7 54.57 151.88 170.63 155.49 170.86 170.01 57.18 202.75 38.28 216.98 100.4 216.98 100.4 214.93 109.44 176.66 151.58 179.67 153.64 217.99 111.48 217.99 111.46 220.72 99.41"/><polygon class="cls-8" points="229.43 137.68 215.67 130.77 226.34 119.6 230.38 131.48 229.43 137.68"/><path class="cls-9" d="M235.6,141.2l-21.45,37.23s-9.19-5.3-11.94-6.87-4.47-5-4.47-9.85c0-9.69,6.8-21.47,15.19-26.31,4.24-2.45,8.07-2.66,10.83-1S235.6,141.2,235.6,141.2Z"/><ellipse class="cls-10" cx="224.85" cy="159.81" rx="21.48" ry="12.4" transform="translate(-25.97 274.63) rotate(-60)"/><ellipse class="cls-8" cx="224.85" cy="159.81" rx="11.76" ry="6.79" transform="translate(-25.97 274.63) rotate(-60)"/><path class="cls-11" d="M228.13,157.91a7.25,7.25,0,0,1-3.28,5.68c-1.81,1-3.27.2-3.27-1.89a7.25,7.25,0,0,1,3.27-5.68C226.66,155,228.13,155.82,228.13,157.91Z"/><path class="cls-12" d="M230.39,131.48v-13l-48.47,44.82L157,177.7v15.94l50.45-29.13,1.78-6.13c1.31-9.08,6-17.82,14-22.73Z"/><polygon class="cls-13" points="207.4 164.51 156.95 193.64 156.95 188.53 209.18 158.38 207.4 164.51"/><path class="cls-14" d="M169.7,179.26l-21.44,37.23s-9.19-5.31-11.94-6.88-4.48-5-4.48-9.85c0-9.69,6.81-21.47,15.19-26.31,4.25-2.45,8.08-2.66,10.84-1S169.7,179.26,169.7,179.26Z"/><ellipse class="cls-10" cx="158.96" cy="197.86" rx="21.48" ry="12.4" transform="translate(-91.87 236.59) rotate(-60)"/><ellipse class="cls-8" cx="158.96" cy="197.86" rx="11.76" ry="6.79" transform="translate(-91.87 236.59) rotate(-60)"/><path class="cls-11" d="M162.24,196a7.26,7.26,0,0,1-3.28,5.68c-1.81,1-3.28.19-3.28-1.9a7.23,7.23,0,0,1,3.28-5.67C160.77,193,162.24,193.88,162.24,196Z"/><polygon class="cls-15" points="179.67 159.05 226.65 107.29 230.38 118.46 181.92 163.28 179.67 164.58 179.67 159.05"/><path class="cls-13" d="M154.16,180.05a25.37,25.37,0,0,1,4.26-3.12c4.46-2.57,8.5-2.82,11.43-1.13,0,0,0-.75,0-.75-4.09-2.34-11.18-3.11-17.26-3.3s-57.1-26.34-57.1-26.34v.75Z"/><path class="cls-16" d="M154.16,179.3a25.37,25.37,0,0,1,4.26-3.12c4.46-2.58,8.5-2.82,11.43-1.13,0,0-55.72-32.1-58.59-33.81s-7-1.53-11.53,1.08a26.08,26.08,0,0,0-4.24,3.1Z"/><polygon class="cls-13" points="173.82 178.81 169.85 175.8 169.85 175.05 174.38 178.48 173.82 178.81"/><polygon class="cls-4" points="223.72 101.47 223.72 101.47 208.43 34.28 204.84 36.35 204.84 36.35 169.7 56.63 154.88 172.69 158.5 172.93 173.01 59.25 205.75 40.34 219.99 102.46 219.99 102.46 217.94 111.5 179.67 153.64 179.67 159.05 220.99 113.55 220.99 113.53 223.72 101.47"/><path class="cls-17" d="M153.18,167.34a22,22,0,0,0-8.67,4.39l2.32-18.24s4.17-6.77,5.54-6.09c.38.19,5.36,3,5.36,3l-.59,4.65Z"/><polygon class="cls-18" points="100.93 146.32 152.63 176.46 154.95 158.22 103.25 128.15 100.93 146.32"/><path class="cls-4" d="M161.3,172.08a21.8,21.8,0,0,0-8.67,4.38L155,158.22s6.83-11.09,5.87-3.45S161.3,172.08,161.3,172.08Z"/><path class="cls-19" d="M178.32,61.16h0l0,0Z"/><path class="cls-10" d="M178.29,61.14h0Z"/><polygon class="cls-20" points="181.92 163.28 179.67 164.58 179.67 159.05 184.65 153.56 181.92 163.28"/><polygon class="cls-7" points="220.99 113.53 222.9 105.12 226.65 107.29 220.99 113.53"/><path class="cls-21" d="M149.17,0,110.55,22.3l59.26,34.25,38.62-22.27ZM119.56,22.31,149.17,5.22l50.26,29.05L169.82,51.36Z"/><polygon class="cls-3" points="168.78 60.83 110.13 26.94 110.56 22.3 169.2 56.19 168.78 60.83"/><polygon class="cls-3" points="195.2 36.72 149.16 10.11 149.16 5.22 199.43 34.27 195.2 36.72"/><path class="cls-4" d="M198,31.27,154.36,6.08a9,9,0,0,0-8.19,0l-25.6,14.77c-2.26,1.31-2.26,3.43,0,4.73l43.64,25.2a9.09,9.09,0,0,0,8.19,0L198,36C200.26,34.7,200.26,32.58,198,31.27ZM173.07,19.69l-14.52,8.39L151,23.72l14.52-8.39,8.18,4.73Zm1.38.8L182,24.83l-14.52,8.38-7.51-4.33Zm-24.83,2.43-7.56-4.36,14.53-8.38,7.55,4.36Zm-1.29.75-13.1,7.56-7.55-4.36,13.1-7.56Zm1.38.79,7.55,4.36-13.1,7.57L136.61,32Zm8.93,5.16L166.15,34l-13.1,7.56-7.51-4.34Zm8.89,5.14,7.55,4.36L162,46.68l-7.55-4.36Zm1.29-.75,14.52-8.38L182.25,25l8.64,5-14.52,8.38ZM148.6,7.49a3.66,3.66,0,0,1,3.32,0l3.42,2-.13-.08-14.52,8.39-4.95-2.86ZM123,22.26l11.44-6.6,5,2.85-13.1,7.57L123,24.18A1,1,0,0,1,123,22.26Zm47,27.11a3.66,3.66,0,0,1-3.32,0l-3.29-1.9,13.1-7.56,4.95,2.86ZM195.56,34.6l-14,8.07L182.7,42l-4.95-2.85,14.52-8.39,3.29,1.9A1,1,0,0,1,195.56,34.6Z"/><path class="cls-21" d="M198,30.08,154.36,4.89a9,9,0,0,0-8.19,0l-25.6,14.77c-2.26,1.31-2.26,3.43,0,4.73l43.64,25.2a9.09,9.09,0,0,0,8.19,0L198,34.81C200.26,33.51,200.26,31.39,198,30.08ZM173.07,18.5l-14.52,8.39L151,22.53l14.52-8.39,8.18,4.73Zm1.38.8L182,23.64,167.44,32l-7.51-4.34Zm-24.83,2.43-7.56-4.36L156.59,9l7.55,4.36Zm-1.29.75L135.23,30l-7.55-4.36,13.1-7.56Zm1.38.79,7.55,4.36-13.1,7.57-7.55-4.36Zm8.93,5.16,7.51,4.34-13.1,7.56L145.54,36Zm8.89,5.13,7.55,4.36L162,45.49l-7.55-4.36Zm1.29-.74,14.52-8.39-1.09-.62,8.64,5-14.52,8.39ZM148.6,6.29a3.73,3.73,0,0,1,3.32,0l3.42,2-.13-.08-14.52,8.39-4.95-2.86ZM123,21.07l11.44-6.61,5,2.86-13.1,7.56L123,23A1,1,0,0,1,123,21.07Zm47,27.11a3.66,3.66,0,0,1-3.32,0l-3.29-1.9,13.1-7.56,4.95,2.86Zm25.59-14.77-14,8.06,1.11-.64L177.75,38l14.52-8.39,3.29,1.9A1,1,0,0,1,195.56,33.41Z"/><path class="cls-7" d="M215.62,106.42l-35.85,41.73-49.59-28.71,0-14.8a10.94,10.94,0,0,1,5.49-9.48L166,77.71l4.51,1,.46-3.59,45.73,26.45Z"/><path class="cls-12" d="M214.93,109.44l-35.16,38.71,0-14.79a11,11,0,0,1,5.5-9.49l30.32-17.45Z"/><polygon class="cls-4" points="202.96 103.31 179.67 116.81 179.67 109.76 205.19 95 202.96 103.31"/><path class="cls-22" d="M173.15,116.58v-6.84l6.52,0v7A6.58,6.58,0,0,1,173.15,116.58Z"/><polygon class="cls-4" points="210.88 73.76 202.96 103.31 197.66 99.5 207.97 61.06 210.88 73.76"/><path class="cls-3" d="M176.06,57.49l-6.85,25.58L197.66,99.5,208,61.06c-11.72-12.12-18.15-11.52-18.15-11.52Z"/><polygon class="cls-3" points="150.37 103.42 173.15 116.58 173.15 109.74 150.37 96.59 150.37 103.42"/><path class="cls-23" d="M150.37,103.35a1.6,1.6,0,0,1-.8-1.34c0-.56,0-6.67,0-6.67l.8,1.25Z"/><path class="cls-21" d="M173.15,109.74,150.37,96.59a1.6,1.6,0,0,1,0-2.78l18.83-10.74A46.49,46.49,0,0,1,197.66,99.5l-18,10.26A6.54,6.54,0,0,1,173.15,109.74Z"/><polygon class="cls-24" points="134.63 146.43 119.16 137.5 124.29 98.21 139.76 107.13 134.63 146.43"/><polygon class="cls-21" points="149.24 101.7 133.77 92.77 124.29 98.21 139.76 107.13 149.24 101.7"/><polygon class="cls-4" points="134.63 146.43 142.86 151.19 149.24 101.7 139.76 107.13 134.63 146.43"/><polygon class="cls-3" points="138.86 103.6 130.51 98.78 131.03 94.4 139.38 99.22 138.86 103.6"/><polygon class="cls-3" points="144.5 96.29 136.15 91.47 131.03 94.4 139.38 99.22 144.5 96.29"/><polygon class="cls-4" points="138.86 103.6 143.97 100.63 144.5 96.29 139.38 99.22 138.86 103.6"/><path class="cls-25" d="M132.91,93.89a8,8,0,0,1-2.37-2c-.83-1.13-5.43-6.53-5.43-6.53l29.25,5.84s-4.87,3.91-6.4,4.82a6,6,0,0,1-2.24.63C141.13,97.29,135.52,95.42,132.91,93.89Z"/><path class="cls-3" d="M128.59,88.07c-4.37-2.56-7.79-6.57.14-7.59s15.66,1.67,21,4.75,8,6.55.3,7.54S133,90.63,128.59,88.07Z"/><polygon class="cls-4" points="105.08 158.17 98.8 154.54 98.8 70.22 105.08 73.85 105.08 158.17"/><polygon class="cls-26" points="114.37 79.32 101.75 72.03 101.75 75.43 114.37 82.71 114.37 79.32"/><polygon class="cls-26" points="114.37 95.7 101.61 88.34 101.61 82.17 114.37 89.53 114.37 95.7"/><polygon class="cls-21" points="114.37 89.53 114.37 85.53 105.08 80.18 101.61 82.16 114.37 89.53"/><polygon class="cls-21" points="93.94 63.05 100.22 59.42 92.82 55.14 86.53 58.77 93.94 63.05"/><polygon class="cls-4" points="130.04 167.81 123.76 171.44 123.76 91.38 130.04 87.75 130.04 167.81"/><polygon class="cls-4" points="132.92 89.41 126.63 93.03 126.63 81.92 132.92 78.29 132.92 89.41"/><polygon class="cls-4" points="125.51 74.02 119.23 77.65 119.23 73.94 125.51 70.31 125.51 74.02"/><rect class="cls-27" x="78.56" y="106.99" width="6.09" height="45.57"/><polygon class="cls-28" points="106.08 158.74 107.12 159.34 107.12 75.13 106.08 74.53 106.08 158.74"/><polygon class="cls-29" points="98.8 62.15 93.94 59.34 93.94 63.05 89.41 60.43 86.53 58.77 86.53 69.88 89.41 71.54 89.41 149.12 97.05 153.53 98.8 154.54 98.8 62.15"/><polygon class="cls-30" points="123.76 80.26 119.23 77.65 119.23 73.94 114.37 71.14 114.37 163.53 116.09 164.52 116.09 164.52 116.14 164.55 119.23 166.34 119.23 166.34 123.76 168.95 123.76 91.37 126.63 93.03 126.63 81.92 123.76 80.26"/><path class="cls-31" d="M136.29,131.54,86.54,102.82a3.48,3.48,0,0,0-3.47-.38l-4.85,2.8,6.45,2.1s50.05,30.25,50.05,31.35l1.14,59.92-1,3.4,4.88-2.8a2.94,2.94,0,0,0,1.27-2.73v-57.1A10.15,10.15,0,0,0,136.29,131.54Z"/><polygon class="cls-3" points="123.75 194.06 89.44 174.24 89.44 149.14 123.75 168.95 123.75 194.06"/><path class="cls-4" d="M109.1,174.76l-5-2.89a5.48,5.48,0,0,1-2.29-4.37v-4.19c0-1.69,1-2.46,2.29-1.73l5,2.9a5.43,5.43,0,0,1,2.29,4.36V173C111.39,174.72,110.37,175.49,109.1,174.76Z"/><polygon class="cls-4" points="123.75 189.73 119.23 187.12 119.23 170.32 123.75 172.93 123.75 189.73"/><polygon class="cls-4" points="93.94 172.52 89.41 169.9 89.41 153.1 93.94 155.72 93.94 172.52"/><polygon class="cls-3" points="114.37 79.32 98.8 70.33 98.8 62.15 114.37 71.14 114.37 79.32"/><polygon class="cls-27" points="99.86 145.29 98.45 146.11 98.45 118.33 99.86 119.14 99.86 145.29"/><polygon class="cls-27" points="108.87 150.5 107.46 151.31 107.46 123.53 108.87 124.34 108.87 150.5"/><polygon class="cls-27" points="117.88 155.7 116.47 156.51 116.47 128.73 117.88 129.55 117.88 155.7"/><polygon class="cls-27" points="126.89 160.9 125.48 161.72 125.48 133.94 126.89 134.75 126.89 160.9"/><polygon class="cls-27" points="90.85 140.09 89.44 140.91 89.44 113.13 90.85 113.94 90.85 140.09"/><polygon class="cls-21" points="96.72 136.07 90.85 132.68 89.44 133.5 96.72 137.71 96.72 136.07"/><polygon class="cls-21" points="96.72 143.48 90.85 140.09 89.44 140.9 96.72 145.11 96.72 143.48"/><polygon class="cls-21" points="87.71 130.87 81.26 127.15 79.85 127.97 87.71 132.5 87.71 130.87"/><polygon class="cls-21" points="87.71 138.28 81.26 134.56 79.85 135.37 87.71 139.91 87.71 138.28"/><polygon class="cls-21" points="105.73 141.28 99.86 137.88 98.45 138.7 105.73 142.91 105.73 141.28"/><polygon class="cls-21" points="105.73 148.69 99.86 145.3 98.45 146.11 105.73 150.32 105.73 148.69"/><polygon class="cls-21" points="114.74 146.47 108.87 143.08 107.46 143.9 114.74 148.1 114.74 146.47"/><polygon class="cls-21" points="114.74 153.88 108.87 150.5 107.46 151.31 114.74 155.51 114.74 153.88"/><polygon class="cls-21" points="123.75 151.68 117.88 148.28 116.47 149.1 123.75 153.31 123.75 151.68"/><polygon class="cls-21" points="123.75 159.09 117.88 155.7 116.47 156.51 123.75 160.72 123.75 159.09"/><polygon class="cls-21" points="133.34 157.22 126.89 153.49 125.48 154.31 133.34 158.84 133.34 157.22"/><polygon class="cls-21" points="133.34 164.62 126.89 160.9 125.48 161.71 133.34 166.25 133.34 164.62"/><path class="cls-26" d="M131.47,134.31,81.72,105.59c-2.62-1.52-4.74-.46-4.74,2.35V165a10.12,10.12,0,0,0,4.74,7.83l49.75,28.73c2.62,1.51,4.74.46,4.74-2.36v-57.1A10.12,10.12,0,0,0,131.47,134.31Zm1.87,63.27c0,1.11-.84,1.53-1.87.93L81.72,169.79a4,4,0,0,1-1.87-3.09V109.6c0-1.11.84-1.52,1.87-.93l49.75,28.72a4,4,0,0,1,1.87,3.09Z"/><polygon class="cls-26" points="133.34 160.7 79.85 129.82 79.85 127.97 133.34 158.84 133.34 160.7"/><polygon class="cls-26" points="87.71 141.76 87.71 112.13 89.44 113.13 89.44 142.76 87.71 141.76"/><polygon class="cls-26" points="105.73 152.17 105.73 122.53 107.46 123.53 107.46 153.16 105.73 152.17"/><polygon class="cls-26" points="96.72 146.97 96.72 117.33 98.45 118.33 98.45 147.96 96.72 146.97"/><polygon class="cls-26" points="123.75 162.57 123.75 132.94 125.48 133.94 125.48 163.57 123.75 162.57"/><polygon class="cls-26" points="114.74 157.37 114.74 127.74 116.47 128.73 116.47 158.37 114.74 157.37"/><polygon class="cls-26" points="133.34 168.1 79.85 137.22 79.85 135.37 133.34 166.25 133.34 168.1"/><path class="cls-13" d="M125.13,199.94a7.21,7.21,0,0,1-3.7,6.5L131,212a7.24,7.24,0,0,0,3.71-6.51Z"/><path class="cls-13" d="M74.69,238.84v-1.75s3.39-5.61,8.45-8.55l36.91-21.3,9.58,3.78,1.38,1-38.29,22.1C85.65,238.12,74.69,238.84,74.69,238.84Z"/><polygon class="cls-13" points="133.34 170.98 133.34 171.15 125.13 166.41 125.13 199.95 134.72 205.48 134.72 172.77 134.72 171.94 134.72 170.18 133.34 170.98"/><path class="cls-7" d="M74.69,237.09a17.85,17.85,0,0,1,8.45-10.3l36.91-21.31,9.58,5.54L92.72,232.33C85.65,236.37,74.69,237.09,74.69,237.09Z"/><path class="cls-32" d="M123.75,199a7.21,7.21,0,0,1-3.7,6.5l9.58,5.54a7.22,7.22,0,0,0,3.71-6.51Z"/><polygon class="cls-7" points="133.34 204.51 123.75 198.98 123.75 165.44 133.34 170.97 133.34 204.51"/><polygon class="cls-7" points="133.34 170.98 134.72 170.18 125.13 164.64 123.75 165.44 133.34 170.98"/><path class="cls-13" d="M81.23,174.59a7.22,7.22,0,0,1-3.7,6.5l9.58,5.54a7.22,7.22,0,0,0,3.71-6.51Z"/><path class="cls-13" d="M30.79,213.49v-1.75s3.39-5.6,8.45-8.54l36.91-21.31,9.58,3.78,1.38,1-38.29,22.1C41.75,212.77,30.79,213.49,30.79,213.49Z"/><polygon class="cls-13" points="89.44 145.63 89.44 145.8 81.23 141.06 81.23 174.6 90.82 180.14 90.82 147.42 90.82 146.59 90.82 144.83 89.44 145.63"/><path class="cls-7" d="M30.79,211.74a17.85,17.85,0,0,1,8.45-10.3l36.91-21.3,9.58,5.53L48.82,207C41.75,211,30.79,211.74,30.79,211.74Z"/><path class="cls-33" d="M79.85,173.63a7.22,7.22,0,0,1-3.7,6.51l9.58,5.53a7.22,7.22,0,0,0,3.71-6.51Z"/><polygon class="cls-7" points="89.44 179.16 79.85 173.63 79.85 140.09 89.44 145.62 89.44 179.16"/><polygon class="cls-7" points="89.44 145.63 90.82 144.83 81.23 139.29 79.85 140.09 89.44 145.63"/><polygon class="cls-21" points="126.63 81.92 132.92 78.29 125.51 74.02 119.23 77.65 126.63 81.92"/><polygon class="cls-21" points="119.23 73.94 125.51 70.31 100.22 55.71 93.94 59.34 119.23 73.94"/><polygon class="cls-4" points="171.2 73.48 161.88 146.43 159.24 138.59 168.13 68.94 171.2 73.48"/><polygon class="cls-3" points="167.58 73.48 158.26 146.43 155.62 141.54 164.91 68.58 167.58 73.48"/><path class="cls-4" d="M167,77.4,165,73.14a4,4,0,0,1-1.69-3.22l-2.58-3.65,3.17-1.84a1.06,1.06,0,0,1,1.1.09l4.09,2.36a4,4,0,0,1,1.69,3.22v4.13a1.48,1.48,0,0,1-.59,1.36Z"/><path class="cls-34" d="M165.93,77.33,161.83,75a4,4,0,0,1-1.68-3.21V67.62c0-1.24.75-1.81,1.68-1.27l4.1,2.36a4,4,0,0,1,1.68,3.22v4.13C167.61,77.3,166.86,77.87,165.93,77.33Z"/><path class="cls-4" d="M110.85,45l-2-4.26a4,4,0,0,1-1.68-3.22l-2.58-3.65L107.71,32a1.07,1.07,0,0,1,1.09.09l4.1,2.37a4,4,0,0,1,1.68,3.21V41.8a1.5,1.5,0,0,1-.58,1.37C113.7,43.33,110.85,45,110.85,45Z"/><path class="cls-34" d="M109.75,44.9l-4.09-2.36A4,4,0,0,1,104,39.32V35.19c0-1.24.76-1.81,1.69-1.27l4.09,2.37a4,4,0,0,1,1.69,3.21v4.13C111.44,44.87,110.68,45.44,109.75,44.9Z"/><path class="cls-35" d="M191.45,118.46a6.33,6.33,0,0,1-5.72,0c-1.58-.91-1.58-2.39,0-3.3a6.27,6.27,0,0,1,5.72,0C193,116.07,193,117.55,191.45,118.46Z"/><rect class="cls-36" x="189.43" y="97.14" width="1.04" height="19.99" transform="translate(18.77 -27.99) rotate(8.86)"/><path class="cls-37" d="M193.52,97.18a2,2,0,1,1-2-2A2,2,0,0,1,193.52,97.18Z"/><polygon class="cls-38" points="80.64 263.08 90.67 257.32 9.77 211.53 0 217.12 80.64 263.08"/><polygon class="cls-39" points="80.64 263.08 90.67 257.32 90.67 259.43 80.64 265.19 80.64 263.08"/><polygon class="cls-39" points="80.64 263.08 80.64 265.19 0 219.23 0 217.12 80.64 263.08"/><polygon class="cls-40" points="80.64 257.3 70.87 251.71 70.87 257.5 80.64 263.08 80.64 257.3"/><polygon class="cls-40" points="80.64 257.3 80.64 263.08 90.67 257.32 90.67 251.53 80.64 257.3"/><polygon class="cls-40" points="9.78 216.9 0.01 211.32 0.01 217.11 9.78 222.69 9.78 216.9"/><polygon class="cls-41" points="9.78 216.9 9.78 222.69 19.8 216.93 19.8 211.14 9.78 216.9"/><polygon class="cls-40" points="43.76 236.32 33.99 230.74 33.99 236.52 43.76 242.11 43.76 236.32"/><polygon class="cls-41" points="43.76 236.32 43.76 242.11 53.78 236.34 53.78 230.55 43.76 236.32"/><polygon class="cls-42" points="108.16 247.23 118.18 241.47 37.28 195.69 27.51 201.27 108.16 247.23"/><polygon class="cls-39" points="108.16 247.23 118.18 241.47 118.18 243.59 108.16 249.34 108.16 247.23"/><polygon class="cls-39" points="108.16 247.23 108.16 249.34 27.51 203.38 27.51 201.27 108.16 247.23"/><polygon class="cls-40" points="108.15 241.45 98.38 235.87 98.38 241.66 108.15 247.24 108.15 241.45"/><polygon class="cls-40" points="108.15 241.45 108.15 247.24 118.18 241.47 118.18 235.69 108.15 241.45"/><polygon class="cls-43" points="37.29 201.06 27.52 195.48 27.52 201.26 37.29 206.85 37.29 201.06"/><polygon class="cls-40" points="37.29 201.06 37.29 206.85 47.31 201.08 47.31 195.29 37.29 201.06"/><polygon class="cls-43" points="71.27 220.47 61.5 214.89 61.5 220.68 71.27 226.26 71.27 220.47"/><polygon class="cls-40" points="71.27 220.47 71.27 226.26 81.29 220.5 81.29 214.71 71.27 220.47"/><polygon class="cls-44" points="135.52 231.46 145.54 225.7 64.64 179.91 54.88 185.5 135.52 231.46"/><polygon class="cls-39" points="135.52 231.46 145.54 225.7 145.54 227.81 135.52 233.57 135.52 231.46"/><polygon class="cls-39" points="135.52 231.46 135.52 233.57 54.88 187.61 54.88 185.5 135.52 231.46"/><polygon class="cls-40" points="135.54 225.66 125.77 220.08 125.77 225.87 135.54 231.45 135.54 225.66"/><polygon class="cls-40" points="135.54 225.66 135.54 231.45 145.56 225.69 145.56 219.9 135.54 225.66"/><polygon class="cls-43" points="64.65 185.29 54.88 179.7 54.88 185.49 64.65 191.07 64.65 185.29"/><polygon class="cls-40" points="64.65 185.29 64.65 191.07 74.68 185.31 74.68 179.52 64.65 185.29"/><polygon class="cls-43" points="98.63 204.7 88.86 199.12 88.86 204.91 98.63 210.49 98.63 204.7"/><polygon class="cls-40" points="98.63 204.7 98.63 210.49 108.66 204.72 108.66 198.94 98.63 204.7"/><polygon class="cls-45" points="80.64 255.21 70.87 249.62 136.05 212.28 145.56 217.84 80.64 255.21"/><polygon class="cls-46" points="80.64 255.21 70.87 249.62 70.87 251.74 80.64 257.32 80.64 255.21"/><polygon class="cls-46" points="80.64 255.21 80.64 257.32 145.56 219.92 145.56 217.81 80.64 255.21"/><polygon class="cls-47" points="9.77 214.8 0 209.22 65.18 171.88 74.95 177.46 9.77 214.8"/><polygon class="cls-46" points="9.77 214.8 0 209.22 0 211.33 9.77 216.91 9.77 214.8"/><polygon class="cls-48" points="9.77 214.8 9.77 216.91 74.95 179.57 74.95 177.46 9.77 214.8"/><polygon class="cls-49" points="43.75 234.22 33.98 228.64 99.16 191.29 108.93 196.87 43.75 234.22"/><polygon class="cls-46" points="43.75 234.22 33.98 228.64 33.98 230.75 43.75 236.33 43.75 234.22"/><polygon class="cls-50" points="43.75 234.22 43.75 236.33 108.93 198.99 108.93 196.87 43.75 234.22"/><polygon class="cls-51" points="80.64 253.1 90.41 247.52 9.77 201.56 0 207.14 80.64 253.1"/><polygon class="cls-39" points="80.64 253.1 90.41 247.52 90.41 249.63 80.64 255.21 80.64 253.1"/><polygon class="cls-39" points="80.64 253.1 80.64 255.21 0 209.25 0 207.14 80.64 253.1"/><polygon class="cls-52" points="94.41 245.16 104.18 239.57 23.54 193.61 13.77 199.19 94.41 245.16"/><polygon class="cls-39" points="94.41 245.16 104.18 239.57 104.18 241.68 94.41 247.27 94.41 245.16"/><polygon class="cls-46" points="94.41 245.16 94.41 247.27 13.77 201.31 13.77 199.19 94.41 245.16"/><polygon class="cls-53" points="108.15 237.28 117.92 231.69 37.27 185.73 27.5 191.32 108.15 237.28"/><polygon class="cls-39" points="108.15 237.28 117.92 231.69 117.92 233.81 108.15 239.39 108.15 237.28"/><polygon class="cls-46" points="108.15 237.28 108.15 239.39 27.5 193.43 27.5 191.32 108.15 237.28"/><polygon class="cls-54" points="121.92 229.33 131.69 223.75 51.04 177.79 41.27 183.37 121.92 229.33"/><polygon class="cls-39" points="121.92 229.33 131.69 223.75 131.69 225.86 121.92 231.44 121.92 229.33"/><polygon class="cls-46" points="121.92 229.33 121.92 231.44 41.27 185.48 41.27 183.37 121.92 229.33"/><polygon class="cls-55" points="135.79 221.31 145.56 215.72 64.92 169.76 55.15 175.35 135.79 221.31"/><polygon class="cls-39" points="135.79 221.31 145.56 215.72 145.56 217.84 135.79 223.42 135.79 221.31"/><polygon class="cls-46" points="135.79 221.31 135.79 223.42 55.15 177.46 55.15 175.35 135.79 221.31"/><polygon class="cls-56" points="105.01 190.33 79.3 175.48 58.46 175.48 32.74 190.33 58.46 205.17 79.3 205.17 105.01 190.33"/><polygon class="cls-57" points="32.74 190.33 58.46 205.17 58.46 175.48 32.74 160.63 32.74 190.33"/><polygon class="cls-58" points="32.74 160.63 58.46 175.48 84.18 160.63 58.46 145.78 32.74 160.63"/><polygon class="cls-59" points="84.18 190.33 58.46 205.17 58.46 175.48 84.18 160.63 84.18 190.33"/><g class="cls-60"><polygon class="cls-61" points="42.24 167.67 33.92 162.88 33.92 166.93 42.24 171.73 42.24 167.67"/><polygon class="cls-26" points="34.94 164.45 34.66 164.3 34.66 166.37 34.94 166.52 34.94 164.45"/><polygon class="cls-26" points="35.72 164.91 35.24 164.63 35.24 166.7 35.72 166.98 35.72 164.91"/><polygon class="cls-26" points="36.34 165.26 35.86 164.98 35.86 167.05 36.34 167.33 36.34 165.26"/><polygon class="cls-26" points="36.99 165.64 36.72 165.48 36.72 167.55 36.99 167.71 36.99 165.64"/><polygon class="cls-26" points="39.16 166.89 38.88 166.73 38.88 168.8 39.16 168.96 39.16 166.89"/><polygon class="cls-26" points="40.03 167.39 39.75 167.23 39.75 169.3 40.03 169.46 40.03 167.39"/><polygon class="cls-26" points="37.77 166.09 37.3 165.81 37.3 167.88 37.77 168.16 37.77 166.09"/><polygon class="cls-26" points="38.39 166.44 37.91 166.17 37.91 168.24 38.39 168.51 38.39 166.44"/><polygon class="cls-26" points="40.91 167.9 40.43 167.63 40.43 169.69 40.91 169.97 40.91 167.9"/><polygon class="cls-26" points="41.5 168.24 41.16 168.05 41.16 170.12 41.5 170.31 41.5 168.24"/></g><polygon class="cls-2" points="82.63 186.1 72.23 194.17 70.44 181.13 80.84 173.06 82.63 186.1"/><polygon class="cls-26" points="72.48 182.63 71.77 183.18 71.53 181.44 72.24 180.89 72.48 182.63"/><polygon class="cls-26" points="74.29 181.22 73.58 181.77 73.34 180.03 74.05 179.48 74.29 181.22"/><polygon class="cls-26" points="76.16 179.78 74.72 180.89 74.55 179.63 75.99 178.51 76.16 179.78"/><polygon class="cls-26" points="72.5 184.98 72.05 185.33 71.88 184.06 72.32 183.72 72.5 184.98"/><polygon class="cls-26" points="73.22 184.42 72.77 184.77 72.6 183.5 73.04 183.16 73.22 184.42"/><polygon class="cls-26" points="73.88 183.91 73.43 184.26 73.26 182.99 73.7 182.65 73.88 183.91"/><polygon class="cls-26" points="75.03 183.02 74.58 183.36 74.41 182.1 74.86 181.75 75.03 183.02"/><polygon class="cls-26" points="75.75 182.46 75.31 182.8 75.13 181.54 75.58 181.19 75.75 182.46"/><polygon class="cls-26" points="76.41 181.94 75.97 182.29 75.79 181.03 76.24 180.68 76.41 181.94"/><polygon class="cls-26" points="76.98 181.5 76.54 181.85 76.37 180.58 76.81 180.24 76.98 181.5"/><polygon class="cls-26" points="72.74 186.75 72.29 187.1 72.12 185.83 72.56 185.49 72.74 186.75"/><polygon class="cls-26" points="73.46 186.19 73.01 186.54 72.84 185.27 73.29 184.93 73.46 186.19"/><polygon class="cls-26" points="74.56 185.33 74.12 185.68 73.94 184.42 74.39 184.07 74.56 185.33"/><polygon class="cls-26" points="75.27 184.78 74.83 185.13 74.65 183.87 75.1 183.52 75.27 184.78"/><polygon class="cls-26" points="75.99 184.23 75.55 184.57 75.37 183.31 75.82 182.96 75.99 184.23"/><polygon class="cls-26" points="76.65 183.71 76.21 184.06 76.03 182.8 76.48 182.45 76.65 183.71"/><polygon class="cls-26" points="77.95 182.71 77.5 183.06 77.33 181.79 77.78 181.45 77.95 182.71"/><polygon class="cls-26" points="78.61 182.2 78.16 182.54 77.99 181.28 78.44 180.94 78.61 182.2"/><polygon class="cls-26" points="79.3 181.66 78.85 182.01 78.68 180.75 79.13 180.4 79.3 181.66"/><polygon class="cls-26" points="80.02 181.1 79.57 181.45 79.4 180.19 79.85 179.84 80.02 181.1"/><polygon class="cls-26" points="80.68 180.59 80.23 180.94 80.06 179.68 80.5 179.33 80.68 180.59"/><polygon class="cls-26" points="72.98 188.5 72.53 188.84 72.36 187.58 72.8 187.23 72.98 188.5"/><polygon class="cls-26" points="73.7 187.94 73.25 188.28 73.08 187.02 73.53 186.67 73.7 187.94"/><polygon class="cls-26" points="74.36 187.43 73.91 187.77 73.74 186.51 74.18 186.16 74.36 187.43"/><polygon class="cls-26" points="75.51 186.53 75.07 186.88 74.89 185.61 75.34 185.27 75.51 186.53"/><polygon class="cls-26" points="76.23 185.97 75.79 186.32 75.61 185.05 76.06 184.71 76.23 185.97"/><polygon class="cls-26" points="76.89 185.46 76.45 185.81 76.27 184.54 76.72 184.2 76.89 185.46"/><polygon class="cls-26" points="77.47 185.01 77.02 185.36 76.85 184.1 77.29 183.75 77.47 185.01"/><polygon class="cls-26" points="78.19 184.46 77.74 184.8 77.57 183.54 78.01 183.19 78.19 184.46"/><polygon class="cls-26" points="78.85 183.94 78.4 184.29 78.23 183.03 78.67 182.68 78.85 183.94"/><polygon class="cls-26" points="80.26 182.85 79.81 183.2 79.64 181.93 80.08 181.59 80.26 182.85"/><polygon class="cls-26" points="80.92 182.34 80.47 182.68 80.3 181.42 80.74 181.07 80.92 182.34"/><polygon class="cls-26" points="73.48 192.15 73.03 192.5 72.86 191.23 73.3 190.89 73.48 192.15"/><polygon class="cls-26" points="74.2 191.59 73.75 191.94 73.58 190.67 74.03 190.33 74.2 191.59"/><polygon class="cls-26" points="74.86 191.08 74.41 191.43 74.24 190.16 74.68 189.81 74.86 191.08"/><polygon class="cls-26" points="76.01 190.18 75.57 190.53 75.39 189.27 75.84 188.92 76.01 190.18"/><polygon class="cls-26" points="76.73 189.63 76.29 189.97 76.11 188.71 76.56 188.36 76.73 189.63"/><polygon class="cls-26" points="77.39 189.11 76.95 189.46 76.77 188.19 77.22 187.85 77.39 189.11"/><polygon class="cls-26" points="77.97 188.67 77.52 189.01 77.35 187.75 77.79 187.4 77.97 188.67"/><polygon class="cls-26" points="78.69 188.11 78.24 188.46 78.07 187.19 78.51 186.84 78.69 188.11"/><polygon class="cls-26" points="73.22 190.26 72.77 190.61 72.6 189.35 73.05 189 73.22 190.26"/><polygon class="cls-26" points="73.94 189.71 73.49 190.05 73.32 188.79 73.77 188.44 73.94 189.71"/><polygon class="cls-26" points="75.05 188.85 74.6 189.19 74.43 187.93 74.87 187.59 75.05 188.85"/><polygon class="cls-26" points="75.75 188.3 75.31 188.65 75.14 187.38 75.58 187.04 75.75 188.3"/><polygon class="cls-26" points="76.47 187.74 76.03 188.09 75.86 186.82 76.3 186.48 76.47 187.74"/><polygon class="cls-26" points="77.13 187.23 76.69 187.57 76.52 186.31 76.96 185.97 77.13 187.23"/><polygon class="cls-26" points="78.43 186.22 77.98 186.57 77.81 185.31 78.26 184.96 78.43 186.22"/><polygon class="cls-26" points="79.09 185.71 78.64 186.06 78.47 184.8 78.92 184.45 79.09 185.71"/><polygon class="cls-26" points="79.78 185.18 79.33 185.52 79.16 184.26 79.61 183.91 79.78 185.18"/><polygon class="cls-26" points="81.16 184.11 80.71 184.45 80.54 183.19 80.99 182.84 81.16 184.11"/><polygon class="cls-26" points="77 179.12 76.56 179.47 76.39 178.2 76.83 177.86 77 179.12"/><polygon class="cls-26" points="79.94 176.85 77.26 178.93 77.08 177.66 79.76 175.58 79.94 176.85"/><polygon class="cls-56" points="43.24 166.7 47.95 169.42 58.46 163.35 53.75 160.63 43.24 166.7"/><polygon class="cls-56" points="73.67 154.57 68.97 151.85 58.46 157.91 63.17 160.63 73.67 154.57"/><polygon class="cls-62" points="63.17 160.63 58.46 157.91 47.95 151.85 43.24 154.57 53.75 160.63 58.46 163.35 68.97 169.42 73.67 166.7 63.17 160.63"/><polygon class="cls-63" points="71.22 168.12 45.49 153.27 45.7 153.14 71.42 167.99 71.22 168.12"/><polygon class="cls-56" points="73.67 196.39 73.67 166.69 68.96 169.41 68.96 199.11 73.67 196.39"/><path class="cls-64" d="M38.62,186.05a5.66,5.66,0,0,0-1.11-1l-.13-.09v-.19s0,0,0-.07l-.28-.16s0,0,0,0v.18l0,0a3.55,3.55,0,0,0-.71-.25,1.9,1.9,0,0,0-.75,0,1.36,1.36,0,0,0-.4.14,1.42,1.42,0,0,0-.62.64l-.09.16v0s0,0,0,0a.58.58,0,0,1,.18-.08.67.67,0,0,1,.53.18,1.74,1.74,0,0,1,.37.43s0,.05.07,0a.59.59,0,0,1,.55.1,1.43,1.43,0,0,1,.45.49c0,.05.05,0,.07,0a.46.46,0,0,1,.33,0s0,0,0,.06v2.72c0,.1,0,.2,0,.3s-.13.21-.29.13a.52.52,0,0,1-.22-.2.64.64,0,0,1-.12-.33,1.09,1.09,0,0,1,0-.18.09.09,0,0,0,0-.06l-.25-.1s0,0,0,0a1.6,1.6,0,0,0,.05.42,1.23,1.23,0,0,0,.32.55l.19.18.19.1h0a.42.42,0,0,0,.36,0,.3.3,0,0,0,.15-.19,1.23,1.23,0,0,0,.05-.39v-2.86a1.39,1.39,0,0,1,.31.37s0,.06.07,0a.5.5,0,0,1,.44,0,1.33,1.33,0,0,1,.57.54s0,.06.06,0l.13,0a.8.8,0,0,1,.6.26,1.88,1.88,0,0,1,.36.5l0,0v-.05a7.7,7.7,0,0,0-.41-1.06A7.31,7.31,0,0,0,38.62,186.05Z"/><path class="cls-64" d="M39.6,185.16l-4.82-2.78c-.46-.26-.83,0-.83.48v5.56a1.84,1.84,0,0,0,.83,1.44l4.82,2.78c.45.26.83.05.83-.48V186.6A1.87,1.87,0,0,0,39.6,185.16Zm.52,6.83c0,.33-.23.47-.52.3l-4.82-2.78a1.18,1.18,0,0,1-.53-.91V183c0-.33.24-.47.53-.3l4.82,2.78a1.17,1.17,0,0,1,.52.91Z"/><path class="cls-64" d="M42.67,192.69c-.23-.14-.45-.61-.35-.8a6.06,6.06,0,0,1,.35-.53l.23.29c0-.38,0-.73-.06-1.1l-.44,0-.43,0,.26.33c-.11.16-.2.32-.31.46a.85.85,0,0,0-.1.65,2.13,2.13,0,0,0,.89,1.37q.27.13.54.3V193Z"/><path class="cls-64" d="M42.88,189.89a.41.41,0,0,0-.07.11l.42.53,0,0v-1.13Z"/><path class="cls-64" d="M42,193.69a1.18,1.18,0,0,1-.53-.91v-5.57c0-.33.24-.47.53-.3l1.23.71v-.35L42,186.56c-.46-.27-.83-.05-.83.48v5.56A1.84,1.84,0,0,0,42,194l1.23.71v-.35Z"/><path class="cls-64" d="M52.15,198.17l.44.25v-3.68l.25.14c-.16-.48-.31-1-.47-1.44l-.47.9.25.15Z"/><path class="cls-64" d="M50.75,197.36l.44.25v-3.68l.24.14c-.15-.48-.31-1-.46-1.44l-.47.9.25.14Z"/><path class="cls-64" d="M49.94,197.7l3.45,2v-.53l-3.45-2Z"/><path class="cls-64" d="M54.08,193.52l-4.82-2.78c-.46-.26-.83-.05-.83.48v5.56a1.84,1.84,0,0,0,.83,1.44L54.08,201c.45.26.83.05.83-.48V195A1.87,1.87,0,0,0,54.08,193.52Zm.52,6.83c0,.33-.23.47-.52.3l-4.82-2.78a1.18,1.18,0,0,1-.53-.91v-5.57c0-.33.24-.47.53-.3l4.82,2.78a1.17,1.17,0,0,1,.52.91Z"/><path class="cls-56" d="M43.25,187.27l3.59,2.07a1.84,1.84,0,0,1,.82,1.44v5.56c0,.53-.37.74-.82.48l-3.59-2.07v1.64L48,199.11v-29.7l-4.71-2.72Z"/><path class="cls-56" d="M43.62,188.81c.22-.37.87-.21,1.33.43a2.1,2.1,0,0,1,.21.39c.13.29.24.58.36.88h.27l-.11,1-.83-1,.23,0c-.12-.3-.23-.61-.37-.91s-.5-.47-.63-.3c-.26.36-.51.74-.77,1.1l-.06.08V193l1,.57.14.08v.58l-.14-.08-1-.57v.8l3.59,2.07c.29.17.52,0,.52-.31V190.6a1.17,1.17,0,0,0-.52-.91l-3.59-2.07v1.76A5.57,5.57,0,0,0,43.62,188.81Zm2.55,3.38c.25.65.49,1.3.76,1.94s.11,1.28-.41,1.26a.76.76,0,0,1-.3-.1l-.7-.39v.36h0l-.6-.87c0-.07-.09-.13-.15-.22l.77-.14v.29a6.26,6.26,0,0,0,.74.42c.23.1.35-.22.24-.52l-.78-2-.06-.17.42,0C46.12,192.07,46.15,192.13,46.17,192.19Z"/><path class="cls-65" d="M45.73,192.21l.78,2c.11.3,0,.62-.24.52a6.26,6.26,0,0,1-.74-.42V194l-.77.14c.06.09.11.15.15.22l.6.87h0v-.36l.7.39a.76.76,0,0,0,.3.1c.52,0,.66-.67.41-1.26s-.51-1.29-.76-1.94c0-.06-.05-.12-.08-.19l-.42,0Z"/><path class="cls-64" d="M44.37,194.25v-.58l-.14-.08-1-.57v.58l1,.57Z"/><path class="cls-65" d="M44.08,189.33c.13-.17.5,0,.63.3s.25.61.37.91l-.23,0,.83,1,.11-1h-.27c-.12-.3-.23-.59-.36-.88a2.1,2.1,0,0,0-.21-.39c-.46-.64-1.11-.8-1.33-.43a5.57,5.57,0,0,1-.37.57v1.13l.06-.08C43.57,190.07,43.82,189.69,44.08,189.33Z"/><path class="cls-65" d="M47.66,196.34v-5.56a1.84,1.84,0,0,0-.82-1.44l-3.59-2.07v.35l3.59,2.07a1.17,1.17,0,0,1,.52.91v5.56c0,.34-.23.48-.52.31l-3.59-2.07v.35l3.59,2.07C47.29,197.08,47.66,196.87,47.66,196.34Z"/><polygon class="cls-56" points="130.73 205.18 105.02 190.33 84.18 190.33 58.46 205.18 84.18 220.03 105.02 220.03 130.73 205.18"/><polygon class="cls-66" points="58.46 205.18 84.18 220.03 84.18 190.33 58.46 175.48 58.46 205.18"/><polygon class="cls-67" points="58.46 175.48 84.18 190.33 109.89 175.48 84.18 160.64 58.46 175.48"/><polygon class="cls-68" points="109.89 205.18 84.18 220.03 84.18 190.33 109.89 175.48 109.89 205.18"/><g class="cls-60"><polygon class="cls-61" points="67.95 182.53 59.64 177.73 59.64 181.78 67.95 186.58 67.95 182.53"/><polygon class="cls-26" points="60.66 179.31 60.38 179.15 60.38 181.22 60.66 181.38 60.66 179.31"/><polygon class="cls-26" points="61.44 179.76 60.96 179.48 60.96 181.55 61.44 181.83 61.44 179.76"/><polygon class="cls-26" points="62.05 180.11 61.58 179.84 61.58 181.91 62.05 182.18 62.05 180.11"/><polygon class="cls-26" points="62.71 180.49 62.43 180.33 62.43 182.4 62.71 182.56 62.71 180.49"/><polygon class="cls-26" points="64.88 181.74 64.6 181.58 64.6 183.65 64.88 183.81 64.88 181.74"/><polygon class="cls-26" points="65.75 182.25 65.47 182.09 65.47 184.16 65.75 184.31 65.75 182.25"/><polygon class="cls-26" points="63.49 180.94 63.01 180.67 63.01 182.74 63.49 183.01 63.49 180.94"/><polygon class="cls-26" points="64.11 181.3 63.63 181.02 63.63 183.09 64.11 183.37 64.11 181.3"/><polygon class="cls-26" points="66.63 182.75 66.15 182.48 66.15 184.55 66.63 184.82 66.63 182.75"/><polygon class="cls-26" points="67.22 183.09 66.88 182.9 66.88 184.97 67.22 185.16 67.22 183.09"/></g><polygon class="cls-2" points="108.35 200.95 97.94 209.02 96.16 195.98 106.56 187.91 108.35 200.95"/><polygon class="cls-26" points="98.2 197.48 97.49 198.03 97.25 196.29 97.96 195.74 98.2 197.48"/><polygon class="cls-26" points="100.01 196.08 99.3 196.63 99.06 194.88 99.77 194.33 100.01 196.08"/><polygon class="cls-26" points="101.88 194.63 100.44 195.75 100.26 194.48 101.71 193.36 101.88 194.63"/><polygon class="cls-26" points="98.21 199.83 97.77 200.18 97.59 198.92 98.04 198.57 98.21 199.83"/><polygon class="cls-26" points="98.93 199.27 98.49 199.62 98.31 198.36 98.76 198.01 98.93 199.27"/><polygon class="cls-26" points="99.59 198.76 99.15 199.11 98.97 197.84 99.42 197.5 99.59 198.76"/><polygon class="cls-26" points="100.75 197.87 100.3 198.21 100.13 196.95 100.58 196.6 100.75 197.87"/><polygon class="cls-26" points="101.47 197.31 101.02 197.65 100.85 196.39 101.3 196.04 101.47 197.31"/><polygon class="cls-26" points="102.13 196.8 101.68 197.14 101.51 195.88 101.96 195.53 102.13 196.8"/><polygon class="cls-26" points="102.7 196.35 102.26 196.7 102.08 195.43 102.53 195.09 102.7 196.35"/><polygon class="cls-26" points="98.45 201.6 98.01 201.95 97.84 200.69 98.28 200.34 98.45 201.6"/><polygon class="cls-26" points="99.18 201.04 98.73 201.39 98.56 200.13 99 199.78 99.18 201.04"/><polygon class="cls-26" points="100.28 200.19 99.84 200.53 99.66 199.27 100.11 198.92 100.28 200.19"/><polygon class="cls-26" points="100.99 199.64 100.54 199.98 100.37 198.72 100.82 198.37 100.99 199.64"/><polygon class="cls-26" points="101.71 199.08 101.27 199.42 101.09 198.16 101.54 197.81 101.71 199.08"/><polygon class="cls-26" points="102.37 198.57 101.92 198.91 101.75 197.65 102.2 197.3 102.37 198.57"/><polygon class="cls-26" points="103.67 197.56 103.22 197.91 103.05 196.64 103.49 196.3 103.67 197.56"/><polygon class="cls-26" points="104.33 197.05 103.88 197.4 103.71 196.13 104.15 195.79 104.33 197.05"/><polygon class="cls-26" points="105.02 196.51 104.57 196.86 104.4 195.6 104.84 195.25 105.02 196.51"/><polygon class="cls-26" points="105.74 195.96 105.29 196.3 105.12 195.04 105.56 194.69 105.74 195.96"/><polygon class="cls-26" points="106.4 195.44 105.95 195.79 105.78 194.53 106.22 194.18 106.4 195.44"/><polygon class="cls-26" points="98.69 203.35 98.25 203.69 98.08 202.43 98.52 202.09 98.69 203.35"/><polygon class="cls-26" points="99.42 202.79 98.97 203.13 98.8 201.87 99.24 201.53 99.42 202.79"/><polygon class="cls-26" points="100.08 202.28 99.63 202.62 99.46 201.36 99.9 201.01 100.08 202.28"/><polygon class="cls-26" points="101.23 201.38 100.78 201.73 100.61 200.47 101.06 200.12 101.23 201.38"/><polygon class="cls-26" points="101.95 200.82 101.5 201.17 101.33 199.91 101.78 199.56 101.95 200.82"/><polygon class="cls-26" points="102.61 200.31 102.16 200.66 101.99 199.39 102.44 199.05 102.61 200.31"/><polygon class="cls-26" points="103.18 199.87 102.74 200.21 102.56 198.95 103.01 198.6 103.18 199.87"/><polygon class="cls-26" points="103.91 199.31 103.46 199.65 103.29 198.39 103.73 198.04 103.91 199.31"/><polygon class="cls-26" points="104.56 198.8 104.12 199.14 103.94 197.88 104.39 197.53 104.56 198.8"/><polygon class="cls-26" points="105.97 197.7 105.53 198.05 105.36 196.78 105.8 196.44 105.97 197.7"/><polygon class="cls-26" points="106.64 197.19 106.19 197.54 106.02 196.27 106.46 195.93 106.64 197.19"/><polygon class="cls-26" points="99.19 207 98.75 207.35 98.58 206.08 99.02 205.74 99.19 207"/><polygon class="cls-26" points="99.92 206.44 99.47 206.79 99.3 205.53 99.74 205.18 99.92 206.44"/><polygon class="cls-26" points="100.58 205.93 100.13 206.28 99.96 205.01 100.4 204.67 100.58 205.93"/><polygon class="cls-26" points="101.73 205.04 101.28 205.38 101.11 204.12 101.56 203.77 101.73 205.04"/><polygon class="cls-26" points="102.45 204.48 102 204.82 101.83 203.56 102.28 203.21 102.45 204.48"/><polygon class="cls-26" points="103.11 203.97 102.66 204.31 102.49 203.05 102.94 202.7 103.11 203.97"/><polygon class="cls-26" points="103.68 203.52 103.24 203.87 103.06 202.6 103.51 202.26 103.68 203.52"/><polygon class="cls-26" points="104.41 202.96 103.96 203.31 103.79 202.04 104.23 201.7 104.41 202.96"/><polygon class="cls-26" points="98.94 205.12 98.49 205.46 98.32 204.2 98.76 203.85 98.94 205.12"/><polygon class="cls-26" points="99.66 204.56 99.21 204.9 99.04 203.64 99.48 203.29 99.66 204.56"/><polygon class="cls-26" points="100.76 203.7 100.32 204.05 100.14 202.78 100.59 202.44 100.76 203.7"/><polygon class="cls-26" points="101.47 203.15 101.03 203.5 100.85 202.23 101.3 201.89 101.47 203.15"/><polygon class="cls-26" points="102.19 202.59 101.75 202.94 101.57 201.68 102.02 201.33 102.19 202.59"/><polygon class="cls-26" points="102.85 202.08 102.41 202.43 102.23 201.16 102.68 200.82 102.85 202.08"/><polygon class="cls-26" points="104.15 201.08 103.7 201.42 103.53 200.16 103.97 199.81 104.15 201.08"/><polygon class="cls-26" points="104.81 200.56 104.36 200.91 104.19 199.65 104.63 199.3 104.81 200.56"/><polygon class="cls-26" points="105.5 200.03 105.05 200.38 104.88 199.11 105.32 198.77 105.5 200.03"/><polygon class="cls-26" points="106.88 198.96 106.43 199.31 106.26 198.04 106.7 197.7 106.88 198.96"/><polygon class="cls-26" points="102.72 193.97 102.28 194.32 102.1 193.06 102.55 192.71 102.72 193.97"/><polygon class="cls-26" points="105.65 191.7 102.97 193.78 102.8 192.51 105.48 190.44 105.65 191.7"/><polygon class="cls-56" points="68.96 181.55 73.67 184.27 84.18 178.2 79.47 175.48 68.96 181.55"/><polygon class="cls-56" points="99.39 169.42 94.68 166.7 84.18 172.76 88.89 175.48 99.39 169.42"/><polygon class="cls-62" points="88.89 175.48 84.18 172.76 73.67 166.7 68.96 169.42 79.47 175.48 84.18 178.2 94.68 184.27 99.39 181.55 88.89 175.48"/><polygon class="cls-63" points="96.93 182.98 71.21 168.13 71.42 167.99 97.14 182.84 96.93 182.98"/><polygon class="cls-56" points="99.39 211.25 99.39 181.55 94.68 184.26 94.68 213.96 99.39 211.25"/><path class="cls-64" d="M64.34,200.9a6,6,0,0,0-1.11-1l-.13-.09v-.19a.06.06,0,0,0,0-.06l-.28-.17s0,0,0,0a1.08,1.08,0,0,1,0,.18h0a3.07,3.07,0,0,0-.71-.26,2.11,2.11,0,0,0-.75,0,1.36,1.36,0,0,0-.4.14,1.44,1.44,0,0,0-.63.64c0,.05,0,.1-.08.16v0s0,0,0,0a.64.64,0,0,1,.19-.08.66.66,0,0,1,.53.19,1.69,1.69,0,0,1,.37.42s0,0,.06,0a.55.55,0,0,1,.55.09,1.45,1.45,0,0,1,.46.49c0,.05,0,0,.07,0a.46.46,0,0,1,.33,0v2.78c0,.1,0,.2,0,.3s-.13.22-.29.13a.67.67,0,0,1-.23-.19.8.8,0,0,1-.11-.34c0-.06,0-.12,0-.18a0,0,0,0,0,0-.05l-.25-.11s0,0,0,0a1.6,1.6,0,0,0,.05.42,1.1,1.1,0,0,0,.32.55l.19.18.18.11h0a.43.43,0,0,0,.35,0,.28.28,0,0,0,.16-.19,1.19,1.19,0,0,0,.05-.39v-2.86a1.35,1.35,0,0,1,.3.37s.05.06.08,0a.54.54,0,0,1,.44,0,1.51,1.51,0,0,1,.56.54s0,.06.07,0l.12,0a.82.82,0,0,1,.61.26,2.06,2.06,0,0,1,.36.5l0,0s0,0,0,0a7.35,7.35,0,0,0-.41-1.07A7.79,7.79,0,0,0,64.34,200.9Z"/><path class="cls-64" d="M65.32,200l-4.82-2.78c-.46-.26-.83,0-.83.48v5.56a1.83,1.83,0,0,0,.83,1.44l4.82,2.78c.45.26.82,0,.82-.48v-5.56A1.86,1.86,0,0,0,65.32,200Zm.52,6.83c0,.33-.23.47-.52.3l-4.82-2.78a1.18,1.18,0,0,1-.53-.91v-5.57c0-.33.24-.47.53-.3l4.82,2.78a1.17,1.17,0,0,1,.52.91Z"/><path class="cls-64" d="M68.39,207.54c-.23-.14-.45-.61-.35-.8a3.58,3.58,0,0,1,.34-.52l.24.29c0-.39,0-.74-.06-1.11l-.44,0-.43,0,.26.33c-.11.16-.21.32-.32.47a.86.86,0,0,0-.09.64,2.11,2.11,0,0,0,.89,1.37c.18.09.36.2.53.3v-.58Z"/><path class="cls-64" d="M68.59,204.74l-.07.11.43.53v-1.15Z"/><path class="cls-64" d="M67.73,208.54a1.17,1.17,0,0,1-.52-.91v-5.57c0-.33.23-.47.52-.3l1.23.71v-.35l-1.23-.71c-.45-.26-.82,0-.82.48v5.56a1.86,1.86,0,0,0,.82,1.44l1.23.71v-.35Z"/><path class="cls-64" d="M77.87,213l.44.26v-3.69l.24.14c-.15-.48-.31-.95-.46-1.44l-.47.9.25.15Z"/><path class="cls-64" d="M76.47,212.21l.44.26v-3.69l.24.14c-.16-.48-.31-.95-.47-1.44-.15.31-.31.6-.46.9l.25.14Z"/><path class="cls-64" d="M75.66,212.56l3.45,2V214l-3.45-2Z"/><path class="cls-64" d="M79.79,208.37,75,205.59c-.46-.26-.83-.05-.83.48v5.56a1.84,1.84,0,0,0,.83,1.44l4.81,2.78c.46.26.83.05.83-.48v-5.56A1.84,1.84,0,0,0,79.79,208.37Zm.53,6.83c0,.33-.24.47-.53.3L75,212.72a1.18,1.18,0,0,1-.53-.91v-5.57c0-.33.24-.47.53-.3l4.81,2.78a1.18,1.18,0,0,1,.53.91Z"/><path class="cls-56" d="M69,202.12l3.59,2.07a1.84,1.84,0,0,1,.83,1.44v5.56c0,.53-.37.74-.83.48L69,209.6v1.64L73.67,214v-29.7L69,181.55Z"/><path class="cls-56" d="M69.34,203.66c.22-.36.87-.21,1.33.43a2.93,2.93,0,0,1,.21.39c.12.29.23.58.36.89l.26,0c0,.36-.07.69-.1,1l-.83-1,.23,0c-.12-.31-.23-.62-.37-.91s-.51-.48-.63-.31L69,205.29a.19.19,0,0,1-.06.07v2.51l1,.57.14.08v.58L70,209l-1-.57v.8l3.59,2.07c.29.17.53,0,.53-.3v-5.57a1.18,1.18,0,0,0-.53-.91L69,202.47v1.76A5.65,5.65,0,0,0,69.34,203.66ZM71.89,207c.25.65.48,1.3.76,1.94s.11,1.28-.41,1.26a1,1,0,0,1-.31-.09l-.69-.4v.36h0l-.59-.87-.15-.22.77-.14c0,.11,0,.21,0,.29a6.26,6.26,0,0,0,.74.42c.23.1.35-.22.23-.52-.25-.67-.51-1.33-.77-2,0-.05,0-.11-.07-.17l.43,0C71.84,206.92,71.87,207,71.89,207Z"/><path class="cls-65" d="M71.45,207.06c.26.67.52,1.33.77,2,.12.3,0,.62-.23.52a6.26,6.26,0,0,1-.74-.42c0-.08,0-.18,0-.29l-.77.14.15.22.59.87h0v-.36l.69.4a1,1,0,0,0,.31.09c.52,0,.66-.67.41-1.26s-.51-1.29-.76-1.94c0-.06,0-.12-.08-.19l-.43,0C71.41,207,71.43,207,71.45,207.06Z"/><path class="cls-64" d="M70.09,209.1v-.58l-.14-.08-1-.57v.58l1,.57Z"/><path class="cls-65" d="M69.8,204.18c.12-.17.5,0,.63.31s.25.6.37.91l-.23,0,.83,1c0-.35.07-.68.1-1l-.26,0c-.13-.31-.24-.6-.36-.89a2.93,2.93,0,0,0-.21-.39c-.46-.64-1.11-.79-1.33-.43a5.65,5.65,0,0,1-.38.57v1.13a.19.19,0,0,0,.06-.07Z"/><path class="cls-65" d="M73.38,211.19v-5.56a1.84,1.84,0,0,0-.83-1.44L69,202.12v.35l3.59,2.07a1.18,1.18,0,0,1,.53.91V211c0,.33-.24.47-.53.3L69,209.25v.35l3.59,2.07C73,211.93,73.38,211.72,73.38,211.19Z"/><polygon class="cls-56" points="145.56 215.72 135.4 209.93 109.89 205.18 84.17 220.02 84.17 249.69 86.63 249.69 80.64 253.1 80.64 257.3 80.64 265.15 90.67 259.43 90.66 251.52 108.15 241.45 108.16 249.34 118.18 243.59 118.17 235.67 135.54 225.66 135.52 233.57 145.54 227.81 145.56 215.72"/><polygon class="cls-69" points="84.17 220.02 109.89 234.87 109.89 205.18 84.17 190.33 84.17 220.02"/><polygon class="cls-70" points="84.17 190.33 109.89 205.18 135.61 190.33 109.89 175.48 84.17 190.33"/><polygon class="cls-71" points="135.61 220.02 109.89 234.87 109.89 205.18 135.61 190.33 135.61 220.02"/><g class="cls-60"><polygon class="cls-61" points="93.67 197.37 85.36 192.57 85.36 196.63 93.67 201.43 93.67 197.37"/><polygon class="cls-26" points="86.37 194.15 86.1 193.99 86.1 196.06 86.37 196.22 86.37 194.15"/><polygon class="cls-26" points="87.16 194.6 86.68 194.33 86.68 196.4 87.16 196.67 87.16 194.6"/><polygon class="cls-26" points="87.77 194.96 87.29 194.68 87.29 196.75 87.77 197.03 87.77 194.96"/><polygon class="cls-26" points="88.42 195.34 88.15 195.18 88.15 197.25 88.42 197.4 88.42 195.34"/><polygon class="cls-26" points="90.59 196.59 90.32 196.43 90.32 198.5 90.59 198.66 90.59 196.59"/><polygon class="cls-26" points="91.46 197.09 91.19 196.93 91.19 199 91.46 199.16 91.46 197.09"/><polygon class="cls-26" points="89.21 195.79 88.73 195.51 88.73 197.58 89.21 197.86 89.21 195.79"/><polygon class="cls-26" points="89.82 196.14 89.34 195.87 89.34 197.93 89.82 198.21 89.82 196.14"/><polygon class="cls-26" points="92.34 197.6 91.86 197.32 91.86 199.39 92.34 199.67 92.34 197.6"/><polygon class="cls-26" points="92.93 197.94 92.6 197.74 92.6 199.81 92.93 200.01 92.93 197.94"/></g><polygon class="cls-2" points="134.06 215.8 123.66 223.87 121.87 210.82 132.28 202.75 134.06 215.8"/><polygon class="cls-26" points="123.91 212.33 123.2 212.88 122.96 211.13 123.67 210.58 123.91 212.33"/><polygon class="cls-26" points="125.72 210.92 125.02 211.47 124.78 209.72 125.49 209.18 125.72 210.92"/><polygon class="cls-26" points="127.59 209.47 126.15 210.59 125.98 209.33 127.42 208.21 127.59 209.47"/><polygon class="cls-26" points="123.93 214.68 123.48 215.02 123.31 213.76 123.75 213.41 123.93 214.68"/><polygon class="cls-26" points="124.65 214.12 124.2 214.46 124.03 213.2 124.48 212.85 124.65 214.12"/><polygon class="cls-26" points="125.31 213.61 124.86 213.95 124.69 212.69 125.14 212.34 125.31 213.61"/><polygon class="cls-26" points="126.46 212.71 126.02 213.06 125.84 211.79 126.29 211.45 126.46 212.71"/><polygon class="cls-26" points="127.18 212.15 126.74 212.5 126.56 211.24 127.01 210.89 127.18 212.15"/><polygon class="cls-26" points="127.84 211.64 127.4 211.99 127.22 210.72 127.67 210.38 127.84 211.64"/><polygon class="cls-26" points="128.42 211.2 127.97 211.54 127.8 210.28 128.25 209.93 128.42 211.2"/><polygon class="cls-26" points="124.17 216.45 123.72 216.79 123.55 215.53 124 215.18 124.17 216.45"/><polygon class="cls-26" points="124.89 215.89 124.44 216.23 124.27 214.97 124.72 214.62 124.89 215.89"/><polygon class="cls-26" points="126 215.03 125.55 215.38 125.38 214.11 125.82 213.77 126 215.03"/><polygon class="cls-26" points="126.7 214.48 126.26 214.83 126.09 213.56 126.53 213.22 126.7 214.48"/><polygon class="cls-26" points="127.43 213.92 126.98 214.27 126.81 213 127.25 212.66 127.43 213.92"/><polygon class="cls-26" points="128.09 213.41 127.64 213.76 127.47 212.49 127.91 212.15 128.09 213.41"/><polygon class="cls-26" points="129.38 212.41 128.94 212.75 128.76 211.49 129.21 211.14 129.38 212.41"/><polygon class="cls-26" points="130.04 211.9 129.59 212.24 129.42 210.98 129.87 210.63 130.04 211.9"/><polygon class="cls-26" points="130.73 211.36 130.28 211.71 130.11 210.44 130.56 210.1 130.73 211.36"/><polygon class="cls-26" points="131.45 210.8 131 211.15 130.83 209.88 131.28 209.54 131.45 210.8"/><polygon class="cls-26" points="132.11 210.29 131.66 210.63 131.49 209.37 131.94 209.03 132.11 210.29"/><polygon class="cls-26" points="124.41 218.19 123.96 218.54 123.79 217.28 124.24 216.93 124.41 218.19"/><polygon class="cls-26" points="125.13 217.63 124.68 217.98 124.51 216.72 124.96 216.37 125.13 217.63"/><polygon class="cls-26" points="125.79 217.12 125.34 217.47 125.17 216.2 125.62 215.86 125.79 217.12"/><polygon class="cls-26" points="126.94 216.23 126.5 216.57 126.33 215.31 126.77 214.96 126.94 216.23"/><polygon class="cls-26" points="127.67 215.67 127.22 216.01 127.05 214.75 127.49 214.4 127.67 215.67"/><polygon class="cls-26" points="128.32 215.16 127.88 215.5 127.71 214.24 128.15 213.89 128.32 215.16"/><polygon class="cls-26" points="128.9 214.71 128.45 215.06 128.28 213.79 128.73 213.45 128.9 214.71"/><polygon class="cls-26" points="129.62 214.15 129.17 214.5 129 213.23 129.45 212.89 129.62 214.15"/><polygon class="cls-26" points="130.28 213.64 129.83 213.99 129.66 212.72 130.11 212.38 130.28 213.64"/><polygon class="cls-26" points="131.69 212.55 131.24 212.89 131.07 211.63 131.52 211.28 131.69 212.55"/><polygon class="cls-26" points="132.35 212.03 131.9 212.38 131.73 211.12 132.18 210.77 132.35 212.03"/><polygon class="cls-26" points="124.91 221.84 124.46 222.19 124.29 220.93 124.74 220.58 124.91 221.84"/><polygon class="cls-26" points="125.63 221.29 125.18 221.63 125.01 220.37 125.46 220.02 125.63 221.29"/><polygon class="cls-26" points="126.29 220.78 125.84 221.12 125.67 219.86 126.12 219.51 126.29 220.78"/><polygon class="cls-26" points="127.44 219.88 127 220.23 126.83 218.96 127.27 218.62 127.44 219.88"/><polygon class="cls-26" points="128.16 219.32 127.72 219.67 127.55 218.4 127.99 218.06 128.16 219.32"/><polygon class="cls-26" points="128.82 218.81 128.38 219.16 128.21 217.89 128.65 217.55 128.82 218.81"/><polygon class="cls-26" points="129.4 218.36 128.95 218.71 128.78 217.45 129.23 217.1 129.4 218.36"/><polygon class="cls-26" points="130.12 217.81 129.67 218.15 129.5 216.89 129.95 216.54 130.12 217.81"/><polygon class="cls-26" points="124.65 219.96 124.21 220.31 124.03 219.04 124.48 218.7 124.65 219.96"/><polygon class="cls-26" points="125.37 219.4 124.93 219.75 124.75 218.49 125.2 218.14 125.37 219.4"/><polygon class="cls-26" points="126.48 218.54 126.03 218.89 125.86 217.63 126.31 217.28 126.48 218.54"/><polygon class="cls-26" points="127.19 218 126.74 218.34 126.57 217.08 127.01 216.73 127.19 218"/><polygon class="cls-26" points="127.91 217.44 127.46 217.78 127.29 216.52 127.73 216.17 127.91 217.44"/><polygon class="cls-26" points="128.57 216.93 128.12 217.27 127.95 216.01 128.39 215.66 128.57 216.93"/><polygon class="cls-26" points="129.86 215.92 129.42 216.27 129.24 215 129.69 214.66 129.86 215.92"/><polygon class="cls-26" points="130.52 215.41 130.08 215.75 129.9 214.49 130.35 214.15 130.52 215.41"/><polygon class="cls-26" points="131.21 214.87 130.77 215.22 130.59 213.96 131.04 213.61 131.21 214.87"/><polygon class="cls-26" points="132.59 213.8 132.15 214.15 131.97 212.89 132.42 212.54 132.59 213.8"/><polygon class="cls-26" points="128.44 208.82 127.99 209.16 127.82 207.9 128.26 207.55 128.44 208.82"/><polygon class="cls-26" points="131.37 206.54 128.69 208.62 128.52 207.36 131.2 205.28 131.37 206.54"/><polygon class="cls-56" points="94.68 196.39 99.39 199.11 109.89 193.05 105.18 190.33 94.68 196.39"/><polygon class="cls-56" points="125.11 184.26 120.4 181.54 109.89 187.61 114.6 190.33 125.11 184.26"/><polygon class="cls-62" points="114.6 190.33 109.89 187.61 99.39 181.54 94.68 184.26 105.18 190.33 109.89 193.05 120.4 199.11 125.11 196.39 114.6 190.33"/><polygon class="cls-63" points="122.65 197.82 96.93 182.97 97.14 182.84 122.86 197.69 122.65 197.82"/><polygon class="cls-56" points="125.1 226.09 125.1 196.39 120.4 199.11 120.4 228.81 125.1 226.09"/><path class="cls-64" d="M90.05,215.74a5.61,5.61,0,0,0-1.11-1l-.12-.09v-.2a.05.05,0,0,0,0-.06l-.28-.16s0,0,0,0v.19l0,0a2.63,2.63,0,0,0-.71-.25,1.73,1.73,0,0,0-.75,0,1.12,1.12,0,0,0-.4.14,1.45,1.45,0,0,0-.62.63l-.09.16v0s0,0,.05,0l.18-.09a.72.72,0,0,1,.53.19,1.42,1.42,0,0,1,.37.43s0,0,.07,0a.56.56,0,0,1,.55.1,1.39,1.39,0,0,1,.45.48c0,.05,0,.05.08,0a.46.46,0,0,1,.33,0v2.78c0,.1,0,.2,0,.3s-.14.21-.3.13a.52.52,0,0,1-.22-.2.88.88,0,0,1-.12-.33c0-.07,0-.12,0-.18a.05.05,0,0,0,0-.06l-.25-.1s0,0,0,0a1.51,1.51,0,0,0,.06.41,1.19,1.19,0,0,0,.31.56l.19.17.19.11h0a.46.46,0,0,0,.36,0,.34.34,0,0,0,.16-.19,1.6,1.6,0,0,0,0-.39v-2.86a1.51,1.51,0,0,1,.3.36s0,.06.07,0a.52.52,0,0,1,.45,0,1.47,1.47,0,0,1,.56.55s0,.05.06,0a.5.5,0,0,1,.13,0,.8.8,0,0,1,.6.26,1.43,1.43,0,0,1,.36.5l0,0s0,0,0,0A5.52,5.52,0,0,0,91,217.2,7,7,0,0,0,90.05,215.74Z"/><path class="cls-64" d="M91,214.86l-4.82-2.78c-.45-.27-.83-.05-.83.47v5.57a1.84,1.84,0,0,0,.83,1.43L91,222.34c.46.26.83,0,.83-.48v-5.57A1.82,1.82,0,0,0,91,214.86Zm.53,6.82c0,.34-.24.47-.53.31l-4.82-2.79a1.14,1.14,0,0,1-.52-.91v-5.56c0-.34.23-.47.52-.3L91,215.21a1.15,1.15,0,0,1,.53.91Z"/><path class="cls-64" d="M94.11,222.38a.85.85,0,0,1-.36-.8,5.91,5.91,0,0,1,.35-.52l.23.29c0-.38,0-.73,0-1.1l-.45,0-.43,0,.27.34c-.11.16-.21.32-.32.46a.84.84,0,0,0-.1.65,2.12,2.12,0,0,0,.89,1.36l.54.3v-.58Z"/><path class="cls-64" d="M94.31,219.59l-.07.1c.15.19.28.36.43.53h0v-1.14C94.56,219.25,94.43,219.41,94.31,219.59Z"/><path class="cls-64" d="M93.45,223.38a1.15,1.15,0,0,1-.53-.91v-5.56c0-.34.24-.47.53-.31l1.23.71V217l-1.23-.71c-.46-.26-.83,0-.83.48v5.57a1.82,1.82,0,0,0,.83,1.43l1.23.71v-.35Z"/><path class="cls-64" d="M103.59,227.87l.43.25v-3.69l.25.14-.47-1.43c-.15.3-.31.59-.46.9l.25.14Z"/><path class="cls-64" d="M102.18,227.06l.44.25v-3.69l.25.14-.47-1.43-.47.9.25.14Z"/><path class="cls-64" d="M101.37,227.4l3.46,2v-.53l-3.46-2Z"/><path class="cls-64" d="M105.51,223.22l-4.82-2.78c-.46-.27-.83-.05-.83.47v5.57a1.81,1.81,0,0,0,.83,1.43l4.82,2.78c.46.27.83.05.83-.47v-5.57A1.81,1.81,0,0,0,105.51,223.22ZM106,230c0,.34-.24.47-.53.31l-4.82-2.79a1.14,1.14,0,0,1-.52-.91v-5.56c0-.34.23-.47.52-.31l4.82,2.79a1.15,1.15,0,0,1,.53.91Z"/><path class="cls-56" d="M94.68,217,98.27,219a1.84,1.84,0,0,1,.83,1.43V226c0,.52-.38.74-.83.47l-3.59-2.07v1.65l4.71,2.72v-29.7l-4.71-2.72Z"/><path class="cls-56" d="M95.06,218.51c.21-.37.87-.21,1.32.43a1.79,1.79,0,0,1,.22.38c.12.29.23.59.35.89h.27c0,.35-.07.68-.11,1l-.83-1,.23,0c-.12-.31-.23-.61-.36-.91s-.51-.48-.63-.31l-.78,1.11-.06.08v2.5l1,.57.14.08v.58l-.14-.08-1-.57v.8l3.59,2.07c.29.17.52,0,.52-.3V220.3a1.14,1.14,0,0,0-.52-.91l-3.59-2.08v1.76C94.81,218.89,94.94,218.71,95.06,218.51Zm2.54,3.38c.26.64.49,1.29.76,1.93s.11,1.29-.41,1.26a.73.73,0,0,1-.3-.09c-.23-.12-.45-.26-.7-.4V225l0,0-.6-.87-.15-.22.77-.14c0,.12,0,.21,0,.3a8.09,8.09,0,0,0,.74.42c.23.09.36-.22.24-.52l-.78-2a1.62,1.62,0,0,1-.06-.17l.43,0C97.55,221.76,97.58,221.82,97.6,221.89Z"/><path class="cls-65" d="M97.16,221.9l.78,2c.12.3,0,.61-.24.52A8.09,8.09,0,0,1,97,224c0-.09,0-.18,0-.3l-.77.14.15.22.6.87,0,0v-.37c.25.14.47.28.7.4a.73.73,0,0,0,.3.09c.52,0,.67-.66.41-1.26s-.5-1.29-.76-1.93c0-.07,0-.13-.07-.2l-.43,0A1.62,1.62,0,0,0,97.16,221.9Z"/><path class="cls-64" d="M95.8,223.94v-.58l-.14-.08-1-.57v.58l1,.57Z"/><path class="cls-65" d="M95.52,219c.12-.17.49,0,.63.31s.24.6.36.91l-.23,0,.83,1c0-.35.07-.68.11-1H97c-.12-.3-.23-.6-.35-.89a1.79,1.79,0,0,0-.22-.38c-.45-.64-1.11-.8-1.32-.43-.12.2-.25.38-.38.56v1.14l.06-.08Z"/><path class="cls-65" d="M99.1,226v-5.57a1.84,1.84,0,0,0-.83-1.43L94.68,217v.35l3.59,2.08a1.14,1.14,0,0,1,.52.91v5.56c0,.34-.23.47-.52.3l-3.59-2.07v.35l3.59,2.07C98.72,226.78,99.1,226.56,99.1,226Z"/><polygon class="cls-72" points="7.03 205.17 32.74 220.02 32.74 190.33 7.03 175.48 7.03 205.17"/><polygon class="cls-73" points="7.03 175.48 32.74 190.33 58.46 175.48 32.74 160.63 7.03 175.48"/><polygon class="cls-74" points="58.46 205.17 32.74 220.02 32.74 190.33 58.46 175.48 58.46 205.17"/><g class="cls-60"><polygon class="cls-61" points="16.52 182.52 8.21 177.72 8.21 181.78 16.52 186.58 16.52 182.52"/><polygon class="cls-26" points="9.22 179.3 8.95 179.14 8.95 181.21 9.22 181.37 9.22 179.3"/><polygon class="cls-26" points="10.01 179.75 9.53 179.48 9.53 181.55 10.01 181.82 10.01 179.75"/><polygon class="cls-26" points="10.62 180.11 10.14 179.83 10.14 181.9 10.62 182.18 10.62 180.11"/><polygon class="cls-26" points="11.27 180.49 11 180.33 11 182.4 11.27 182.56 11.27 180.49"/><polygon class="cls-26" points="13.44 181.74 13.17 181.58 13.17 183.65 13.44 183.81 13.44 181.74"/><polygon class="cls-26" points="14.31 182.24 14.04 182.08 14.04 184.15 14.31 184.31 14.31 182.24"/><polygon class="cls-26" points="12.06 180.94 11.58 180.66 11.58 182.73 12.06 183.01 12.06 180.94"/><polygon class="cls-26" points="12.67 181.29 12.19 181.02 12.19 183.09 12.67 183.36 12.67 181.29"/><polygon class="cls-26" points="15.19 182.75 14.71 182.47 14.71 184.54 15.19 184.82 15.19 182.75"/><polygon class="cls-26" points="15.78 183.09 15.45 182.9 15.45 184.97 15.78 185.16 15.78 183.09"/></g><polygon class="cls-2" points="56.91 200.95 46.51 209.02 44.72 195.97 55.13 187.9 56.91 200.95"/><polygon class="cls-26" points="46.76 197.48 46.05 198.03 45.81 196.28 46.52 195.73 46.76 197.48"/><polygon class="cls-26" points="48.58 196.07 47.87 196.62 47.63 194.88 48.34 194.33 48.58 196.07"/><polygon class="cls-26" points="50.45 194.62 49 195.74 48.83 194.48 50.27 193.36 50.45 194.62"/><polygon class="cls-26" points="46.78 199.83 46.33 200.18 46.16 198.91 46.61 198.56 46.78 199.83"/><polygon class="cls-26" points="47.5 199.27 47.05 199.62 46.88 198.35 47.33 198.01 47.5 199.27"/><polygon class="cls-26" points="48.16 198.76 47.71 199.1 47.54 197.84 47.99 197.5 48.16 198.76"/><polygon class="cls-26" points="49.31 197.86 48.87 198.21 48.7 196.94 49.14 196.6 49.31 197.86"/><polygon class="cls-26" points="50.03 197.3 49.59 197.65 49.42 196.39 49.86 196.04 50.03 197.3"/><polygon class="cls-26" points="50.69 196.79 50.25 197.14 50.08 195.88 50.52 195.53 50.69 196.79"/><polygon class="cls-26" points="51.27 196.35 50.82 196.69 50.65 195.43 51.09 195.08 51.27 196.35"/><polygon class="cls-26" points="47.02 201.6 46.58 201.94 46.4 200.68 46.85 200.33 47.02 201.6"/><polygon class="cls-26" points="47.74 201.04 47.3 201.38 47.12 200.12 47.57 199.78 47.74 201.04"/><polygon class="cls-26" points="48.85 200.18 48.4 200.53 48.23 199.26 48.67 198.92 48.85 200.18"/><polygon class="cls-26" points="49.56 199.63 49.11 199.98 48.94 198.71 49.38 198.37 49.56 199.63"/><polygon class="cls-26" points="50.28 199.07 49.83 199.42 49.66 198.16 50.1 197.81 50.28 199.07"/><polygon class="cls-26" points="50.94 198.56 50.49 198.91 50.32 197.64 50.76 197.3 50.94 198.56"/><polygon class="cls-26" points="52.23 197.56 51.78 197.9 51.61 196.64 52.06 196.29 52.23 197.56"/><polygon class="cls-26" points="52.89 197.05 52.45 197.39 52.27 196.13 52.72 195.78 52.89 197.05"/><polygon class="cls-26" points="53.58 196.51 53.13 196.86 52.96 195.59 53.41 195.25 53.58 196.51"/><polygon class="cls-26" points="54.3 195.95 53.86 196.3 53.68 195.03 54.13 194.69 54.3 195.95"/><polygon class="cls-26" points="54.96 195.44 54.52 195.79 54.34 194.52 54.79 194.18 54.96 195.44"/><polygon class="cls-26" points="47.26 203.34 46.81 203.69 46.64 202.43 47.09 202.08 47.26 203.34"/><polygon class="cls-26" points="47.98 202.78 47.53 203.13 47.36 201.87 47.81 201.52 47.98 202.78"/><polygon class="cls-26" points="48.64 202.27 48.2 202.62 48.02 201.36 48.47 201.01 48.64 202.27"/><polygon class="cls-26" points="49.8 201.38 49.35 201.72 49.18 200.46 49.62 200.12 49.8 201.38"/><polygon class="cls-26" points="50.52 200.82 50.07 201.16 49.9 199.9 50.34 199.56 50.52 200.82"/><polygon class="cls-26" points="51.17 200.31 50.73 200.65 50.56 199.39 51 199.04 51.17 200.31"/><polygon class="cls-26" points="51.75 199.86 51.3 200.21 51.13 198.94 51.58 198.6 51.75 199.86"/><polygon class="cls-26" points="52.47 199.3 52.02 199.65 51.85 198.39 52.3 198.04 52.47 199.3"/><polygon class="cls-26" points="53.13 198.79 52.68 199.14 52.51 197.87 52.96 197.53 53.13 198.79"/><polygon class="cls-26" points="54.54 197.7 54.09 198.04 53.92 196.78 54.37 196.43 54.54 197.7"/><polygon class="cls-26" points="55.2 197.19 54.76 197.53 54.58 196.27 55.03 195.92 55.2 197.19"/><polygon class="cls-26" points="47.76 207 47.31 207.34 47.14 206.08 47.59 205.73 47.76 207"/><polygon class="cls-26" points="48.48 206.44 48.03 206.78 47.86 205.52 48.31 205.17 48.48 206.44"/><polygon class="cls-26" points="49.14 205.93 48.7 206.27 48.52 205.01 48.97 204.66 49.14 205.93"/><polygon class="cls-26" points="50.3 205.03 49.85 205.38 49.68 204.11 50.12 203.77 50.3 205.03"/><polygon class="cls-26" points="51.02 204.47 50.57 204.82 50.4 203.55 50.84 203.21 51.02 204.47"/><polygon class="cls-26" points="51.67 203.96 51.23 204.31 51.06 203.04 51.5 202.7 51.67 203.96"/><polygon class="cls-26" points="52.25 203.51 51.8 203.86 51.63 202.6 52.08 202.25 52.25 203.51"/><polygon class="cls-26" points="52.97 202.96 52.52 203.3 52.35 202.04 52.8 201.69 52.97 202.96"/><polygon class="cls-26" points="47.5 205.11 47.06 205.46 46.88 204.19 47.33 203.85 47.5 205.11"/><polygon class="cls-26" points="48.22 204.55 47.78 204.9 47.6 203.64 48.05 203.29 48.22 204.55"/><polygon class="cls-26" points="49.33 203.7 48.88 204.04 48.71 202.78 49.16 202.43 49.33 203.7"/><polygon class="cls-26" points="50.04 203.15 49.59 203.49 49.42 202.23 49.86 201.88 50.04 203.15"/><polygon class="cls-26" points="50.76 202.59 50.31 202.93 50.14 201.67 50.59 201.32 50.76 202.59"/><polygon class="cls-26" points="51.42 202.08 50.97 202.42 50.8 201.16 51.24 200.81 51.42 202.08"/><polygon class="cls-26" points="52.71 201.07 52.27 201.42 52.09 200.16 52.54 199.81 52.71 201.07"/><polygon class="cls-26" points="53.37 200.56 52.93 200.91 52.75 199.64 53.2 199.3 53.37 200.56"/><polygon class="cls-26" points="54.06 200.03 53.62 200.37 53.44 199.11 53.89 198.76 54.06 200.03"/><polygon class="cls-26" points="55.44 198.96 55 199.3 54.82 198.04 55.27 197.69 55.44 198.96"/><polygon class="cls-26" points="51.29 193.97 50.84 194.31 50.67 193.05 51.11 192.71 51.29 193.97"/><polygon class="cls-26" points="54.22 191.69 51.54 193.77 51.37 192.51 54.05 190.43 54.22 191.69"/><polygon class="cls-56" points="17.53 181.54 22.24 184.26 32.74 178.2 28.03 175.48 17.53 181.54"/><polygon class="cls-56" points="47.96 169.41 43.25 166.69 32.74 172.76 37.45 175.48 47.96 169.41"/><polygon class="cls-62" points="37.45 175.48 32.74 172.76 22.24 166.69 17.53 169.41 28.03 175.48 32.74 178.2 43.25 184.26 47.96 181.54 37.45 175.48"/><polygon class="cls-63" points="45.5 182.97 19.78 168.12 19.99 167.99 45.71 182.84 45.5 182.97"/><polygon class="cls-56" points="47.95 211.24 47.95 181.54 43.25 184.26 43.25 213.96 47.95 211.24"/><path class="cls-64" d="M12.9,200.9a5.15,5.15,0,0,0-1.11-1l-.12-.09v-.2s0,0,0-.06l-.28-.16s0,0,0,0v.18l0,0a2.63,2.63,0,0,0-.71-.25,1.73,1.73,0,0,0-.75,0,1.45,1.45,0,0,0-1,.77l-.09.16v0s0,0,.05,0a.71.71,0,0,1,.18-.08.67.67,0,0,1,.53.18,1.42,1.42,0,0,1,.37.43s.05,0,.07,0a.56.56,0,0,1,.55.1,1.39,1.39,0,0,1,.45.48c0,.05,0,.05.08,0a.46.46,0,0,1,.33,0v2.78c0,.1,0,.2,0,.3s-.14.21-.3.13a.58.58,0,0,1-.22-.2.88.88,0,0,1-.12-.33c0-.06,0-.12,0-.18a.05.05,0,0,0,0-.06l-.25-.1s0,0,0,0a1.64,1.64,0,0,0,.06.42,1.21,1.21,0,0,0,.31.55l.19.18.19.1h0a.46.46,0,0,0,.36,0,.34.34,0,0,0,.16-.19,1.6,1.6,0,0,0,.05-.39v-2.86a1.74,1.74,0,0,1,.3.36s0,.06.07,0a.49.49,0,0,1,.45,0,1.37,1.37,0,0,1,.56.54s0,0,.06,0a.28.28,0,0,1,.13,0,.8.8,0,0,1,.6.26,1.43,1.43,0,0,1,.36.5l0,0s0,0,0,0a5.52,5.52,0,0,0-.41-1.06A6.89,6.89,0,0,0,12.9,200.9Z"/><path class="cls-64" d="M13.88,200l-4.82-2.78c-.45-.27-.83,0-.83.48v5.56a1.84,1.84,0,0,0,.83,1.43l4.82,2.79c.46.26.83,0,.83-.48v-5.57A1.82,1.82,0,0,0,13.88,200Zm.53,6.82c0,.34-.24.47-.53.31l-4.82-2.78a1.17,1.17,0,0,1-.52-.92v-5.56c0-.33.23-.47.52-.3l4.82,2.78a1.16,1.16,0,0,1,.53.91Z"/><path class="cls-64" d="M17,207.53a.83.83,0,0,1-.36-.79,4.86,4.86,0,0,1,.35-.53l.23.29c0-.38,0-.73-.05-1.1l-.45,0-.42,0,.26.33c-.11.16-.21.32-.32.46a.81.81,0,0,0-.09.65,2.1,2.1,0,0,0,.89,1.37l.53.29v-.57Z"/><path class="cls-64" d="M17.16,204.74l-.07.11.43.53v-1.15C17.41,204.4,17.28,204.56,17.16,204.74Z"/><path class="cls-64" d="M16.3,208.53a1.15,1.15,0,0,1-.53-.91v-5.56c0-.34.24-.47.53-.31l1.23.72v-.35l-1.23-.71c-.46-.27-.83,0-.83.47v5.57a1.81,1.81,0,0,0,.83,1.43l1.23.71v-.35Z"/><path class="cls-64" d="M26.44,213l.43.25v-3.69l.25.15c-.16-.49-.31-1-.47-1.44l-.46.9.25.14Z"/><path class="cls-64" d="M25,212.21l.44.25v-3.69a2,2,0,0,0,.25.14l-.47-1.43-.47.9.25.14Z"/><path class="cls-64" d="M24.22,212.55l3.46,2V214l-3.46-2Z"/><path class="cls-64" d="M28.36,208.37l-4.82-2.78c-.45-.27-.83-.05-.83.48v5.56a1.84,1.84,0,0,0,.83,1.43l4.82,2.79c.46.26.83,0,.83-.48V209.8A1.82,1.82,0,0,0,28.36,208.37Zm.53,6.82c0,.34-.24.47-.53.31l-4.82-2.79a1.14,1.14,0,0,1-.52-.91v-5.56c0-.34.23-.47.52-.3l4.82,2.78a1.16,1.16,0,0,1,.53.91Z"/><path class="cls-56" d="M17.53,202.12l3.59,2.07a1.82,1.82,0,0,1,.83,1.43v5.57c0,.52-.37.74-.83.47l-3.59-2.07v1.65L22.24,214v-29.7l-4.71-2.72Z"/><path class="cls-56" d="M17.91,203.66c.21-.37.87-.21,1.32.43a2.08,2.08,0,0,1,.22.38c.12.29.23.59.35.89h.27c0,.35-.07.68-.11,1l-.83-1,.23,0c-.12-.31-.23-.61-.36-.91s-.51-.48-.63-.3l-.78,1.1-.06.08v2.51l1,.56.14.08v.59l-.13-.08-1-.58v.8l3.59,2.08c.29.16.52,0,.52-.31v-5.56a1.14,1.14,0,0,0-.52-.91l-3.59-2.07v1.76C17.66,204,17.79,203.86,17.91,203.66ZM20.46,207c.25.64.48,1.29.75,1.94s.11,1.28-.41,1.25a.73.73,0,0,1-.3-.09c-.23-.12-.45-.26-.7-.4v.37l0,0-.59-.87L19,209l.77-.15c0,.12,0,.21,0,.3.26.14.5.32.74.42s.36-.22.24-.52l-.78-2a1.62,1.62,0,0,1-.06-.17l.43,0A1.67,1.67,0,0,0,20.46,207Z"/><path class="cls-65" d="M20,207.05l.78,2c.12.3,0,.61-.24.52s-.48-.28-.74-.42c0-.09,0-.18,0-.3L19,209l.16.21.59.87,0,0v-.37c.25.14.47.28.7.4a.73.73,0,0,0,.3.09c.52,0,.67-.66.41-1.25s-.5-1.3-.75-1.94a1.67,1.67,0,0,1-.08-.2l-.43,0A1.62,1.62,0,0,0,20,207.05Z"/><path class="cls-64" d="M18.65,209.1v-.59l-.14-.08-1-.56v.57l1,.58Z"/><path class="cls-65" d="M18.37,204.18c.12-.18.49,0,.63.3s.24.6.36.91l-.23,0,.83,1c0-.35.07-.68.11-1H19.8c-.12-.3-.23-.6-.35-.89a2.08,2.08,0,0,0-.22-.38c-.45-.64-1.11-.8-1.32-.43-.12.2-.25.38-.38.57v1.13l.06-.08Z"/><path class="cls-65" d="M22,211.19v-5.57a1.82,1.82,0,0,0-.83-1.43l-3.59-2.07v.35l3.59,2.07a1.14,1.14,0,0,1,.52.91V211c0,.34-.23.47-.52.31l-3.59-2.08v.35l3.59,2.07C21.58,211.93,22,211.71,22,211.19Z"/><polygon class="cls-75" points="32.74 220.03 58.46 234.87 58.46 205.18 32.74 190.33 32.74 220.03"/><polygon class="cls-76" points="32.74 190.33 58.46 205.18 84.18 190.33 58.46 175.48 32.74 190.33"/><polygon class="cls-77" points="84.18 220.03 58.46 234.87 58.46 205.18 84.18 190.33 84.18 220.03"/><g class="cls-60"><polygon class="cls-61" points="42.24 197.37 33.93 192.57 33.93 196.63 42.24 201.43 42.24 197.37"/><polygon class="cls-26" points="34.94 194.15 34.66 194 34.66 196.06 34.94 196.22 34.94 194.15"/><polygon class="cls-26" points="35.72 194.61 35.24 194.33 35.24 196.4 35.72 196.68 35.72 194.61"/><polygon class="cls-26" points="36.34 194.96 35.86 194.68 35.86 196.75 36.34 197.03 36.34 194.96"/><polygon class="cls-26" points="36.99 195.34 36.72 195.18 36.72 197.25 36.99 197.41 36.99 195.34"/><polygon class="cls-26" points="39.16 196.59 38.89 196.43 38.89 198.5 39.16 198.66 39.16 196.59"/><polygon class="cls-26" points="40.03 197.09 39.75 196.93 39.75 199 40.03 199.16 40.03 197.09"/><polygon class="cls-26" points="37.77 195.79 37.3 195.51 37.3 197.58 37.77 197.86 37.77 195.79"/><polygon class="cls-26" points="38.39 196.15 37.91 195.87 37.91 197.94 38.39 198.21 38.39 196.15"/><polygon class="cls-26" points="40.91 197.6 40.43 197.32 40.43 199.4 40.91 199.67 40.91 197.6"/><polygon class="cls-26" points="41.5 197.94 41.16 197.75 41.16 199.82 41.5 200.01 41.5 197.94"/></g><polygon class="cls-2" points="82.63 215.8 72.23 223.87 70.44 210.83 80.85 202.76 82.63 215.8"/><polygon class="cls-26" points="72.48 212.33 71.77 212.88 71.53 211.13 72.24 210.59 72.48 212.33"/><polygon class="cls-26" points="74.29 210.93 73.58 211.47 73.35 209.73 74.05 209.18 74.29 210.93"/><polygon class="cls-26" points="76.16 209.47 74.72 210.59 74.55 209.33 75.99 208.21 76.16 209.47"/><polygon class="cls-26" points="72.5 214.68 72.05 215.03 71.88 213.76 72.32 213.42 72.5 214.68"/><polygon class="cls-26" points="73.22 214.12 72.77 214.47 72.6 213.21 73.05 212.86 73.22 214.12"/><polygon class="cls-26" points="73.88 213.61 73.43 213.96 73.26 212.69 73.7 212.35 73.88 213.61"/><polygon class="cls-26" points="75.03 212.72 74.59 213.06 74.41 211.8 74.86 211.45 75.03 212.72"/><polygon class="cls-26" points="75.75 212.16 75.31 212.5 75.13 211.24 75.58 210.89 75.75 212.16"/><polygon class="cls-26" points="76.41 211.65 75.97 211.99 75.79 210.73 76.24 210.38 76.41 211.65"/><polygon class="cls-26" points="76.99 211.2 76.54 211.55 76.37 210.28 76.81 209.94 76.99 211.2"/><polygon class="cls-26" points="72.74 216.45 72.29 216.8 72.12 215.53 72.57 215.19 72.74 216.45"/><polygon class="cls-26" points="73.46 215.89 73.01 216.24 72.84 214.97 73.29 214.63 73.46 215.89"/><polygon class="cls-26" points="74.56 215.03 74.12 215.38 73.95 214.12 74.39 213.77 74.56 215.03"/><polygon class="cls-26" points="75.27 214.49 74.83 214.83 74.66 213.57 75.1 213.22 75.27 214.49"/><polygon class="cls-26" points="76 213.93 75.55 214.27 75.38 213.01 75.82 212.66 76 213.93"/><polygon class="cls-26" points="76.65 213.41 76.21 213.76 76.03 212.5 76.48 212.15 76.65 213.41"/><polygon class="cls-26" points="77.95 212.41 77.5 212.76 77.33 211.49 77.78 211.15 77.95 212.41"/><polygon class="cls-26" points="78.61 211.9 78.16 212.24 77.99 210.98 78.44 210.63 78.61 211.9"/><polygon class="cls-26" points="79.3 211.36 78.85 211.71 78.68 210.44 79.13 210.1 79.3 211.36"/><polygon class="cls-26" points="80.02 210.8 79.57 211.15 79.4 209.89 79.85 209.54 80.02 210.8"/><polygon class="cls-26" points="80.68 210.29 80.23 210.64 80.06 209.38 80.51 209.03 80.68 210.29"/><polygon class="cls-26" points="72.98 218.2 72.53 218.54 72.36 217.28 72.81 216.93 72.98 218.2"/><polygon class="cls-26" points="73.7 217.64 73.25 217.98 73.08 216.72 73.53 216.37 73.7 217.64"/><polygon class="cls-26" points="74.36 217.13 73.91 217.47 73.74 216.21 74.19 215.86 74.36 217.13"/><polygon class="cls-26" points="75.51 216.23 75.07 216.58 74.89 215.31 75.34 214.97 75.51 216.23"/><polygon class="cls-26" points="76.23 215.67 75.79 216.02 75.61 214.75 76.06 214.41 76.23 215.67"/><polygon class="cls-26" points="76.89 215.16 76.45 215.51 76.27 214.24 76.72 213.9 76.89 215.16"/><polygon class="cls-26" points="77.47 214.72 77.02 215.06 76.85 213.8 77.29 213.45 77.47 214.72"/><polygon class="cls-26" points="78.19 214.16 77.74 214.5 77.57 213.24 78.02 212.89 78.19 214.16"/><polygon class="cls-26" points="78.85 213.64 78.4 213.99 78.23 212.73 78.67 212.38 78.85 213.64"/><polygon class="cls-26" points="80.26 212.55 79.81 212.9 79.64 211.63 80.09 211.29 80.26 212.55"/><polygon class="cls-26" points="80.92 212.04 80.47 212.38 80.3 211.12 80.75 210.78 80.92 212.04"/><polygon class="cls-26" points="73.48 221.85 73.03 222.19 72.86 220.93 73.31 220.59 73.48 221.85"/><polygon class="cls-26" points="74.2 221.29 73.75 221.64 73.58 220.37 74.03 220.03 74.2 221.29"/><polygon class="cls-26" points="74.86 220.78 74.41 221.12 74.24 219.86 74.69 219.51 74.86 220.78"/><polygon class="cls-26" points="76.01 219.88 75.57 220.23 75.39 218.97 75.84 218.62 76.01 219.88"/><polygon class="cls-26" points="76.73 219.32 76.29 219.67 76.11 218.41 76.56 218.06 76.73 219.32"/><polygon class="cls-26" points="77.39 218.81 76.95 219.16 76.77 217.9 77.22 217.55 77.39 218.81"/><polygon class="cls-26" points="77.97 218.37 77.52 218.71 77.35 217.45 77.79 217.1 77.97 218.37"/><polygon class="cls-26" points="78.69 217.81 78.24 218.16 78.07 216.89 78.52 216.54 78.69 217.81"/><polygon class="cls-26" points="73.22 219.97 72.77 220.31 72.6 219.05 73.05 218.7 73.22 219.97"/><polygon class="cls-26" points="73.94 219.41 73.5 219.75 73.32 218.49 73.77 218.14 73.94 219.41"/><polygon class="cls-26" points="75.05 218.55 74.6 218.9 74.43 217.63 74.87 217.28 75.05 218.55"/><polygon class="cls-26" points="75.75 218 75.31 218.34 75.14 217.08 75.58 216.74 75.75 218"/><polygon class="cls-26" points="76.48 217.44 76.03 217.79 75.86 216.52 76.3 216.18 76.48 217.44"/><polygon class="cls-26" points="77.14 216.93 76.69 217.28 76.52 216.01 76.96 215.66 77.14 216.93"/><polygon class="cls-26" points="78.43 215.93 77.98 216.27 77.81 215.01 78.26 214.66 78.43 215.93"/><polygon class="cls-26" points="79.09 215.41 78.64 215.76 78.47 214.5 78.92 214.15 79.09 215.41"/><polygon class="cls-26" points="79.78 214.88 79.33 215.22 79.16 213.96 79.61 213.61 79.78 214.88"/><polygon class="cls-26" points="81.16 213.81 80.72 214.15 80.54 212.89 80.99 212.54 81.16 213.81"/><polygon class="cls-26" points="77 208.82 76.56 209.17 76.39 207.9 76.83 207.56 77 208.82"/><polygon class="cls-26" points="79.94 206.55 77.26 208.63 77.09 207.36 79.76 205.28 79.94 206.55"/><polygon class="cls-56" points="43.25 196.4 47.95 199.12 58.46 193.05 53.75 190.33 43.25 196.4"/><polygon class="cls-56" points="73.67 184.27 68.97 181.55 58.46 187.61 63.17 190.33 73.67 184.27"/><polygon class="cls-62" points="63.17 190.33 58.46 187.61 47.95 181.55 43.25 184.27 53.75 190.33 58.46 193.05 68.97 199.12 73.67 196.4 63.17 190.33"/><polygon class="cls-63" points="71.22 197.82 45.5 182.97 45.7 182.84 71.42 197.69 71.22 197.82"/><polygon class="cls-56" points="73.67 226.09 73.67 196.39 68.96 199.11 68.96 228.81 73.67 226.09"/><path class="cls-64" d="M38.62,215.75a5.39,5.39,0,0,0-1.11-1l-.13-.09v-.19s0-.05,0-.07l-.28-.16s0,0,0,0v.18l0,0a3,3,0,0,0-.71-.25,1.9,1.9,0,0,0-.75,0,1.36,1.36,0,0,0-.4.14,1.45,1.45,0,0,0-.62.63l-.09.17v0s0,0,0,0a.58.58,0,0,1,.18-.08.67.67,0,0,1,.53.18,1.56,1.56,0,0,1,.37.43s0,0,.07,0a.59.59,0,0,1,.55.1,1.43,1.43,0,0,1,.45.49s.05,0,.07,0a.49.49,0,0,1,.34,0v2.78c0,.1,0,.2,0,.3s-.14.21-.3.13a.52.52,0,0,1-.22-.2.64.64,0,0,1-.12-.33c0-.06,0-.12,0-.18a.07.07,0,0,0,0-.06l-.25-.1s0,0,0,0a1.29,1.29,0,0,0,.06.42,1.13,1.13,0,0,0,.31.55l.19.18.19.1h0a.42.42,0,0,0,.36,0,.27.27,0,0,0,.15-.19,1.23,1.23,0,0,0,.05-.39v-2.86a1.39,1.39,0,0,1,.31.37s0,.06.07,0a.5.5,0,0,1,.44,0,1.33,1.33,0,0,1,.57.54s0,.06.06.05l.13,0a.8.8,0,0,1,.6.26,1.69,1.69,0,0,1,.36.5l0,0v-.05a6.61,6.61,0,0,0-.41-1.06A7.31,7.31,0,0,0,38.62,215.75Z"/><path class="cls-64" d="M39.6,214.86l-4.82-2.78c-.46-.26-.83-.05-.83.48v5.56a1.84,1.84,0,0,0,.83,1.44l4.82,2.78c.46.26.83,0,.83-.48V216.3A1.84,1.84,0,0,0,39.6,214.86Zm.53,6.83c0,.33-.24.47-.53.3l-4.82-2.78a1.18,1.18,0,0,1-.53-.91v-5.57c0-.33.24-.47.53-.3l4.82,2.78a1.18,1.18,0,0,1,.53.91Z"/><path class="cls-64" d="M42.67,222.39c-.23-.14-.45-.61-.35-.8a6.06,6.06,0,0,1,.35-.53l.23.29c0-.38,0-.73,0-1.1l-.45,0-.43,0,.26.33c-.11.16-.2.32-.31.46a.85.85,0,0,0-.1.65,2.13,2.13,0,0,0,.89,1.37q.27.13.54.3v-.58Z"/><path class="cls-64" d="M42.88,219.59a.41.41,0,0,0-.07.11l.42.53,0,0v-1.13Z"/><path class="cls-64" d="M42,223.39a1.18,1.18,0,0,1-.53-.91v-5.57c0-.33.24-.47.53-.3l1.23.71V217L42,216.26c-.46-.27-.83,0-.83.48v5.56a1.84,1.84,0,0,0,.83,1.44l1.23.71v-.35Z"/><path class="cls-64" d="M52.15,227.87l.44.25v-3.68l.25.14c-.16-.48-.31-1-.47-1.44-.15.3-.31.6-.47.9l.25.14Z"/><path class="cls-64" d="M50.75,227.06l.44.25v-3.68l.24.14c-.15-.48-.31-1-.46-1.44l-.47.9.25.14Z"/><path class="cls-64" d="M49.94,227.4l3.46,2v-.53l-3.46-2Z"/><path class="cls-64" d="M54.08,223.22l-4.82-2.78c-.46-.26-.83-.05-.83.48v5.56a1.84,1.84,0,0,0,.83,1.44l4.82,2.78c.45.26.83.05.83-.48v-5.56A1.87,1.87,0,0,0,54.08,223.22Zm.52,6.83c0,.33-.23.47-.52.3l-4.82-2.78a1.18,1.18,0,0,1-.53-.91v-5.57c0-.33.24-.47.53-.3l4.82,2.78a1.17,1.17,0,0,1,.52.91Z"/><path class="cls-56" d="M43.25,217,46.84,219a1.84,1.84,0,0,1,.82,1.44V226c0,.53-.37.74-.82.48l-3.59-2.07v1.64L48,228.81v-29.7l-4.71-2.72Z"/><path class="cls-56" d="M43.63,218.51c.21-.37.87-.21,1.32.43a1.64,1.64,0,0,1,.21.39c.13.29.24.58.36.88h.27l-.11,1-.83-1,.23,0c-.12-.3-.23-.61-.36-.91s-.51-.47-.63-.3c-.27.36-.52.74-.78,1.1l-.06.08v2.51l1,.57.14.08V224l-.14-.08-1-.57v.8l3.59,2.07c.29.17.52,0,.52-.31V220.3a1.17,1.17,0,0,0-.52-.91l-3.59-2.07v1.76C43.38,218.9,43.51,218.71,43.63,218.51Zm2.54,3.38c.25.65.49,1.3.76,1.94s.11,1.28-.41,1.26a.76.76,0,0,1-.3-.1l-.7-.39V225h0l-.6-.87c0-.07-.09-.13-.15-.22l.77-.14V224a6.26,6.26,0,0,0,.74.42c.23.1.35-.22.24-.52l-.78-2-.06-.17.42,0C46.12,221.77,46.15,221.83,46.17,221.89Z"/><path class="cls-65" d="M45.73,221.91l.78,2c.11.3,0,.62-.24.52a6.26,6.26,0,0,1-.74-.42v-.29l-.77.14c.06.09.11.15.15.22l.6.87h0v-.36l.7.39a.76.76,0,0,0,.3.1c.52,0,.66-.67.41-1.26s-.51-1.29-.76-1.94c0-.06-.05-.12-.08-.19l-.42,0Z"/><path class="cls-64" d="M44.37,224v-.58l-.14-.08-1-.57v.58l1,.57Z"/><path class="cls-65" d="M44.09,219c.12-.17.49,0,.63.3s.24.61.36.91l-.23,0,.83,1,.11-1h-.27c-.12-.3-.23-.59-.36-.88a1.64,1.64,0,0,0-.21-.39c-.45-.64-1.11-.8-1.32-.43-.12.2-.25.39-.38.57v1.13l.06-.08C43.57,219.77,43.82,219.39,44.09,219Z"/><path class="cls-65" d="M47.66,226v-5.56a1.84,1.84,0,0,0-.82-1.44L43.25,217v.35l3.59,2.07a1.17,1.17,0,0,1,.52.91v5.56c0,.34-.23.48-.52.31l-3.59-2.07v.35l3.59,2.07C47.29,226.78,47.66,226.57,47.66,226Z"/><polygon class="cls-78" points="58.45 234.84 84.17 249.69 84.17 219.99 58.45 205.15 58.45 234.84"/><polygon class="cls-79" points="58.45 205.15 84.17 219.99 109.88 205.15 84.17 190.3 58.45 205.15"/><polygon class="cls-80" points="109.88 234.84 84.17 249.69 84.17 219.99 109.88 205.15 109.88 234.84"/><g class="cls-60"><polygon class="cls-61" points="67.94 212.19 59.63 207.39 59.63 211.45 67.94 216.25 67.94 212.19"/><polygon class="cls-26" points="60.65 208.97 60.37 208.81 60.37 210.88 60.65 211.04 60.65 208.97"/><polygon class="cls-26" points="61.43 209.42 60.95 209.15 60.95 211.22 61.43 211.49 61.43 209.42"/><polygon class="cls-26" points="62.04 209.78 61.56 209.5 61.56 211.57 62.04 211.84 62.04 209.78"/><polygon class="cls-26" points="62.7 210.15 62.42 210 62.42 212.06 62.7 212.22 62.7 210.15"/><polygon class="cls-26" points="64.86 211.41 64.59 211.25 64.59 213.32 64.86 213.47 64.86 211.41"/><polygon class="cls-26" points="65.73 211.91 65.46 211.75 65.46 213.82 65.73 213.98 65.73 211.91"/><polygon class="cls-26" points="63.48 210.61 63 210.33 63 212.4 63.48 212.68 63.48 210.61"/><polygon class="cls-26" points="64.09 210.96 63.61 210.68 63.61 212.75 64.09 213.03 64.09 210.96"/><polygon class="cls-26" points="66.62 212.42 66.14 212.14 66.14 214.21 66.62 214.49 66.62 212.42"/><polygon class="cls-26" points="67.2 212.76 66.87 212.56 66.87 214.63 67.2 214.82 67.2 212.76"/></g><polygon class="cls-2" points="108.34 230.62 97.93 238.69 96.15 225.64 106.55 217.57 108.34 230.62"/><polygon class="cls-26" points="98.18 227.15 97.47 227.7 97.24 225.95 97.94 225.4 98.18 227.15"/><polygon class="cls-26" points="100 225.74 99.29 226.29 99.05 224.54 99.76 223.99 100 225.74"/><polygon class="cls-26" points="101.87 224.29 100.42 225.41 100.25 224.15 101.69 223.03 101.87 224.29"/><polygon class="cls-26" points="98.2 229.5 97.75 229.84 97.58 228.58 98.03 228.23 98.2 229.5"/><polygon class="cls-26" points="98.92 228.94 98.48 229.28 98.3 228.02 98.75 227.67 98.92 228.94"/><polygon class="cls-26" points="99.58 228.43 99.14 228.77 98.96 227.51 99.41 227.16 99.58 228.43"/><polygon class="cls-26" points="100.74 227.53 100.29 227.88 100.12 226.61 100.56 226.27 100.74 227.53"/><polygon class="cls-26" points="101.46 226.97 101.01 227.32 100.84 226.05 101.28 225.71 101.46 226.97"/><polygon class="cls-26" points="102.12 226.46 101.67 226.81 101.5 225.54 101.94 225.2 102.12 226.46"/><polygon class="cls-26" points="102.69 226.01 102.25 226.36 102.07 225.1 102.52 224.75 102.69 226.01"/><polygon class="cls-26" points="98.44 231.26 98 231.61 97.83 230.35 98.27 230 98.44 231.26"/><polygon class="cls-26" points="99.16 230.71 98.72 231.05 98.55 229.79 98.99 229.44 99.16 230.71"/><polygon class="cls-26" points="100.27 229.85 99.82 230.19 99.65 228.93 100.1 228.59 100.27 229.85"/><polygon class="cls-26" points="100.98 229.3 100.53 229.65 100.36 228.38 100.81 228.04 100.98 229.3"/><polygon class="cls-26" points="101.7 228.74 101.25 229.09 101.08 227.82 101.53 227.48 101.7 228.74"/><polygon class="cls-26" points="102.36 228.23 101.91 228.57 101.74 227.31 102.19 226.97 102.36 228.23"/><polygon class="cls-26" points="103.65 227.22 103.21 227.57 103.03 226.31 103.48 225.96 103.65 227.22"/><polygon class="cls-26" points="104.31 226.71 103.87 227.06 103.69 225.8 104.14 225.45 104.31 226.71"/><polygon class="cls-26" points="105 226.18 104.56 226.52 104.39 225.26 104.83 224.91 105 226.18"/><polygon class="cls-26" points="105.72 225.62 105.28 225.97 105.11 224.7 105.55 224.35 105.72 225.62"/><polygon class="cls-26" points="106.38 225.11 105.94 225.45 105.77 224.19 106.21 223.84 106.38 225.11"/><polygon class="cls-26" points="98.68 233.01 98.24 233.36 98.06 232.09 98.51 231.75 98.68 233.01"/><polygon class="cls-26" points="99.4 232.45 98.96 232.8 98.78 231.53 99.23 231.19 99.4 232.45"/><polygon class="cls-26" points="100.06 231.94 99.62 232.29 99.44 231.02 99.89 230.68 100.06 231.94"/><polygon class="cls-26" points="101.22 231.05 100.77 231.39 100.6 230.13 101.04 229.78 101.22 231.05"/><polygon class="cls-26" points="101.94 230.49 101.49 230.83 101.32 229.57 101.77 229.22 101.94 230.49"/><polygon class="cls-26" points="102.6 229.97 102.15 230.32 101.98 229.06 102.42 228.71 102.6 229.97"/><polygon class="cls-26" points="103.17 229.53 102.73 229.88 102.55 228.61 103 228.27 103.17 229.53"/><polygon class="cls-26" points="103.89 228.97 103.45 229.32 103.27 228.05 103.72 227.71 103.89 228.97"/><polygon class="cls-26" points="104.55 228.46 104.11 228.81 103.93 227.54 104.38 227.2 104.55 228.46"/><polygon class="cls-26" points="105.96 227.37 105.52 227.71 105.34 226.45 105.79 226.1 105.96 227.37"/><polygon class="cls-26" points="106.62 226.85 106.18 227.2 106 225.94 106.45 225.59 106.62 226.85"/><polygon class="cls-26" points="99.18 236.66 98.74 237.01 98.56 235.75 99.01 235.4 99.18 236.66"/><polygon class="cls-26" points="99.9 236.1 99.46 236.45 99.28 235.19 99.73 234.84 99.9 236.1"/><polygon class="cls-26" points="100.56 235.59 100.12 235.94 99.94 234.68 100.39 234.33 100.56 235.59"/><polygon class="cls-26" points="101.72 234.7 101.27 235.04 101.1 233.78 101.54 233.44 101.72 234.7"/><polygon class="cls-26" points="102.44 234.14 101.99 234.49 101.82 233.22 102.27 232.88 102.44 234.14"/><polygon class="cls-26" points="103.1 233.63 102.65 233.97 102.48 232.71 102.92 232.36 103.1 233.63"/><polygon class="cls-26" points="103.67 233.18 103.23 233.53 103.05 232.26 103.5 231.92 103.67 233.18"/><polygon class="cls-26" points="104.39 232.62 103.95 232.97 103.77 231.71 104.22 231.36 104.39 232.62"/><polygon class="cls-26" points="98.92 234.78 98.48 235.13 98.31 233.86 98.75 233.52 98.92 234.78"/><polygon class="cls-26" points="99.64 234.22 99.2 234.57 99.03 233.3 99.47 232.96 99.64 234.22"/><polygon class="cls-26" points="100.75 233.36 100.31 233.71 100.13 232.45 100.58 232.1 100.75 233.36"/><polygon class="cls-26" points="101.46 232.81 101.01 233.16 100.84 231.9 101.29 231.55 101.46 232.81"/><polygon class="cls-26" points="102.18 232.26 101.73 232.6 101.56 231.34 102.01 230.99 102.18 232.26"/><polygon class="cls-26" points="102.84 231.74 102.39 232.09 102.22 230.83 102.67 230.48 102.84 231.74"/><polygon class="cls-26" points="104.14 230.74 103.69 231.09 103.52 229.82 103.96 229.48 104.14 230.74"/><polygon class="cls-26" points="104.79 230.23 104.35 230.57 104.18 229.31 104.62 228.97 104.79 230.23"/><polygon class="cls-26" points="105.48 229.69 105.04 230.04 104.87 228.78 105.31 228.43 105.48 229.69"/><polygon class="cls-26" points="106.86 228.62 106.42 228.97 106.25 227.71 106.69 227.36 106.86 228.62"/><polygon class="cls-26" points="102.71 223.64 102.26 223.98 102.09 222.72 102.54 222.37 102.71 223.64"/><polygon class="cls-26" points="105.64 221.36 102.96 223.44 102.79 222.18 105.47 220.1 105.64 221.36"/><polygon class="cls-56" points="68.95 211.21 73.66 213.93 84.17 207.87 79.46 205.15 68.95 211.21"/><polygon class="cls-56" points="99.38 199.08 94.67 196.36 84.17 202.43 88.87 205.15 99.38 199.08"/><polygon class="cls-62" points="88.87 205.15 84.17 202.43 73.66 196.36 68.95 199.08 79.46 205.15 84.17 207.87 94.67 213.93 99.38 211.21 88.87 205.15"/><polygon class="cls-63" points="96.92 212.64 71.2 197.79 71.41 197.65 97.13 212.5 96.92 212.64"/><polygon class="cls-56" points="99.38 240.91 99.38 211.21 94.67 213.93 94.67 243.63 99.38 240.91"/><path class="cls-64" d="M64.32,230.56a6,6,0,0,0-1.1-1l-.13-.08v-.2a.05.05,0,0,0,0-.06l-.28-.16s0,0,0,0v.19l0,0A2.75,2.75,0,0,0,62,229a1.73,1.73,0,0,0-.75,0,1.4,1.4,0,0,0-.41.13,1.53,1.53,0,0,0-.62.64l-.09.16v0s0,0,.05,0a.64.64,0,0,1,.19-.08.7.7,0,0,1,.52.19,1.37,1.37,0,0,1,.37.42s0,0,.07,0a.53.53,0,0,1,.55.1,1.39,1.39,0,0,1,.45.48s.06,0,.08,0a.47.47,0,0,1,.33,0v2.77a2.81,2.81,0,0,1,0,.3c0,.2-.13.22-.29.14a.6.6,0,0,1-.23-.2.72.72,0,0,1-.11-.34c0-.06,0-.12,0-.18a.05.05,0,0,0,0,0l-.25-.1s0,0,0,0a1.21,1.21,0,0,0,0,.42,1.13,1.13,0,0,0,.32.56l.19.17.18.11h0a.42.42,0,0,0,.36,0,.29.29,0,0,0,.16-.18,1.62,1.62,0,0,0,.05-.4v-2.86a1.57,1.57,0,0,1,.3.37s0,.06.08.05a.5.5,0,0,1,.44,0,1.47,1.47,0,0,1,.56.55s0,.05.06,0l.13,0a.78.78,0,0,1,.61.26,1.83,1.83,0,0,1,.36.49s0,0,0,0,0,0,0,0a5.91,5.91,0,0,0-.4-1.06A7.14,7.14,0,0,0,64.32,230.56Z"/><path class="cls-64" d="M65.3,229.68l-4.81-2.78c-.46-.27-.83-.05-.83.47v5.57a1.82,1.82,0,0,0,.83,1.43l4.81,2.78c.46.27.83,0,.83-.47v-5.57A1.81,1.81,0,0,0,65.3,229.68Zm.53,6.82c0,.34-.24.47-.53.3L60.49,234a1.15,1.15,0,0,1-.53-.91v-5.56c0-.34.24-.47.53-.31L65.3,230a1.15,1.15,0,0,1,.53.91Z"/><path class="cls-64" d="M68.38,237.2a.87.87,0,0,1-.36-.8,4.72,4.72,0,0,1,.35-.52l.24.29c0-.38,0-.74-.06-1.11l-.44,0-.43,0,.26.33c-.11.17-.21.33-.32.47a.8.8,0,0,0-.09.65,2,2,0,0,0,.89,1.36l.53.3v-.58Z"/><path class="cls-64" d="M68.58,234.4l-.07.11.43.53h0v-1.14Z"/><path class="cls-64" d="M67.72,238.2a1.15,1.15,0,0,1-.52-.91v-5.56c0-.34.23-.47.52-.31l1.23.71v-.35l-1.23-.71c-.45-.26-.83,0-.83.48v5.57a1.85,1.85,0,0,0,.83,1.43l1.23.71v-.35Z"/><path class="cls-64" d="M77.86,242.69l.44.25v-3.69l.24.14c-.15-.48-.31-.95-.46-1.43l-.47.9.25.14Z"/><path class="cls-64" d="M76.45,241.87l.44.26v-3.69l.25.14-.47-1.43-.46.89.24.15Z"/><path class="cls-64" d="M75.65,242.22l3.45,2v-.53l-3.45-2Z"/><path class="cls-64" d="M79.78,238,75,235.25c-.45-.26-.82,0-.82.48v5.57a1.84,1.84,0,0,0,.82,1.43l4.82,2.78c.46.27.83.05.83-.47v-5.57A1.81,1.81,0,0,0,79.78,238Zm.53,6.82c0,.34-.24.47-.53.3L75,242.38a1.15,1.15,0,0,1-.52-.91v-5.56c0-.34.23-.47.52-.31l4.82,2.79a1.15,1.15,0,0,1,.53.91Z"/><path class="cls-56" d="M69,231.78l3.59,2.08a1.81,1.81,0,0,1,.83,1.43v5.56c0,.53-.37.75-.83.48L69,239.26v1.65l4.71,2.72v-29.7L69,211.21Z"/><path class="cls-56" d="M69.33,233.33c.22-.37.87-.21,1.33.43a2.32,2.32,0,0,1,.21.38c.12.29.23.58.35.89h.27c0,.35-.07.68-.1,1l-.83-1,.23,0c-.13-.31-.24-.61-.37-.91s-.51-.48-.63-.31L69,235,69,235v2.5l1,.57.14.08v.58l-.14-.08-1-.57v.8L72.54,241c.29.17.53,0,.53-.3v-5.56a1.18,1.18,0,0,0-.53-.92L69,232.13v1.76C69.08,233.71,69.21,233.52,69.33,233.33Zm2.55,3.37c.25.65.48,1.3.76,1.94s.11,1.29-.42,1.26a.73.73,0,0,1-.3-.09l-.69-.4v.36h0l-.59-.87-.16-.22.78-.14v.3c.25.14.5.31.74.42s.35-.22.23-.53c-.26-.66-.52-1.33-.77-2l-.07-.17.43,0C71.83,236.58,71.85,236.64,71.88,236.7Z"/><path class="cls-65" d="M71.44,236.72c.25.67.51,1.34.77,2,.12.31,0,.62-.23.53s-.49-.28-.74-.42v-.3l-.78.14.16.22.59.87h0v-.36l.69.4a.73.73,0,0,0,.3.09c.53,0,.67-.66.42-1.26s-.51-1.29-.76-1.94c0-.06,0-.12-.08-.19l-.43,0Z"/><path class="cls-64" d="M70.08,238.76v-.58l-.14-.08-1-.57v.58l1,.57Z"/><path class="cls-65" d="M69.79,233.84c.12-.17.49,0,.63.31s.24.6.37.91l-.23,0,.83,1c0-.35.07-.68.1-1h-.27c-.12-.31-.23-.6-.35-.89a2.32,2.32,0,0,0-.21-.38c-.46-.64-1.11-.8-1.33-.43-.12.19-.25.38-.38.56V235L69,235Z"/><path class="cls-65" d="M73.37,240.85v-5.56a1.81,1.81,0,0,0-.83-1.43L69,231.78v.35l3.59,2.07a1.18,1.18,0,0,1,.53.92v5.56c0,.33-.24.47-.53.3L69,238.91v.35l3.59,2.07C73,241.6,73.37,241.38,73.37,240.85Z"/><polygon class="cls-56" points="70.87 249.62 53.09 239.51 50.67 238.13 43.76 242.11 54.62 242.11 70.87 251.49 70.87 249.62"/><polygon class="cls-56" points="33.99 230.45 33.98 228.64 16.65 218.74 9.77 222.69 20.55 222.69 33.99 230.45"/></g></g></g></g></svg>